<?xml version="1.0" encoding="UTF-8" standalone="no"?>
<svg
   xmlns:dc="http://purl.org/dc/elements/1.1/"
   xmlns:cc="http://creativecommons.org/ns#"
   xmlns:rdf="http://www.w3.org/1999/02/22-rdf-syntax-ns#"
   xmlns:svg="http://www.w3.org/2000/svg"
   xmlns="http://www.w3.org/2000/svg"
   xmlns:xlink="http://www.w3.org/1999/xlink"
   xmlns:sodipodi="http://sodipodi.sourceforge.net/DTD/sodipodi-0.dtd"
   xmlns:inkscape="http://www.inkscape.org/namespaces/inkscape"
   width="48"
   height="48"
   viewBox="0 0 48 48"
   id="svg2"
   version="1.1"
   inkscape:version="0.92.5 (2060ec1f9f, 2020-04-08)"
   sodipodi:docname="com.github.lainsce.khronos.svg">
  <sodipodi:namedview
     pagecolor="#ffffff"
     bordercolor="#666666"
     borderopacity="1"
     objecttolerance="10"
     gridtolerance="10"
     guidetolerance="10"
     inkscape:pageopacity="0"
     inkscape:pageshadow="2"
     inkscape:window-width="2560"
     inkscape:window-height="964"
     id="namedview37"
     showgrid="true"
     inkscape:zoom="16"
     inkscape:cx="13.40625"
     inkscape:cy="20.855401"
     inkscape:window-x="0"
     inkscape:window-y="30"
     inkscape:window-maximized="1"
     inkscape:current-layer="svg2">
    <inkscape:grid
       type="xygrid"
       id="grid842" />
  </sodipodi:namedview>
  <defs
     id="defs4">
    <linearGradient
       id="linearGradient23419">
      <stop
         id="stop23421"
         style="stop-color:#000000;stop-opacity:1"
         offset="0" />
      <stop
         id="stop23423"
         style="stop-color:#000000;stop-opacity:0"
         offset="1" />
    </linearGradient>
    <linearGradient
       id="linearGradient4806-2-9">
      <stop
         id="stop4808-4-6"
         style="stop-color:#ffffff;stop-opacity:1"
         offset="0" />
      <stop
         id="stop4810-0-9"
         style="stop-color:#ffffff;stop-opacity:0.23529412"
         offset="0.42447853" />
      <stop
         id="stop4812-8-7"
         style="stop-color:#ffffff;stop-opacity:0.15686275"
         offset="0.82089913" />
      <stop
         id="stop4814-0-7"
         style="stop-color:#ffffff;stop-opacity:0.39215687"
         offset="1" />
    </linearGradient>
    <linearGradient
       xlink:href="#linearGradient4806-2-9"
       id="linearGradient8460"
       gradientUnits="userSpaceOnUse"
       gradientTransform="matrix(1.1838482,0,0,1.1838482,-61.44558,-8.99018)"
       x1="71.204407"
       y1="15.369057"
       x2="71.204407"
       y2="40.495617" />
    <linearGradient
       xlink:href="#linearGradient4806-2-9"
       id="linearGradient8456"
       gradientUnits="userSpaceOnUse"
       gradientTransform="matrix(1.3471377,0,0,-1.3471377,-73.23118,61.54055)"
       x1="71.204407"
       y1="15.369057"
       x2="71.204407"
       y2="40.495617" />
    <linearGradient
       xlink:href="#linearGradient4251"
       id="linearGradient8452"
       gradientUnits="userSpaceOnUse"
       gradientTransform="matrix(0.38749999,0,0,0.38749999,-154.19999,-83.67496)"
       x1="304"
       y1="98"
       x2="368"
       y2="210" />
    <linearGradient
       id="linearGradient4251">
      <stop
         id="stop4259"
         offset="0"
         style="stop-color:#cccccc;stop-opacity:1" />
      <stop
         style="stop-color:#f4f4f4;stop-opacity:1"
         offset="0.51999998"
         id="stop6460" />
      <stop
         style="stop-color:#c1c1c1;stop-opacity:1"
         offset="1"
         id="stop4183" />
    </linearGradient>
    <linearGradient
       xlink:href="#linearGradient4806-2-9"
       id="linearGradient8448"
       gradientUnits="userSpaceOnUse"
       gradientTransform="matrix(1.5920718,0,0,1.5920718,-90.90958,-20.3661)"
       x1="71.204407"
       y1="15.369057"
       x2="71.204407"
       y2="40.495617" />
    <linearGradient
       xlink:href="#linearGradient4140"
       id="linearGradient8444"
       gradientUnits="userSpaceOnUse"
       gradientTransform="matrix(0.69491525,0,0,0.69491525,-131.31359,-101.08475)"
       x1="196"
       y1="152"
       x2="252"
       y2="208" />
    <linearGradient
       id="linearGradient4140">
      <stop
         id="stop4142"
         offset="0"
         style="stop-color:#f9c440;stop-opacity:1" />
      <stop
         style="stop-color:#fff394;stop-opacity:1"
         offset="0.50190115"
         id="stop5784" />
      <stop
         id="stop4144"
         offset="1"
         style="stop-color:#f9c440;stop-opacity:1" />
    </linearGradient>
    <radialGradient
       gradientTransform="matrix(0.25490241,0,0,0.08762273,-1.27539,25.1859)"
       gradientUnits="userSpaceOnUse"
       xlink:href="#linearGradient23419"
       id="radialGradient3018"
       fy="186.17059"
       fx="99.157013"
       r="62.769119"
       cy="186.17059"
       cx="99.157013" />
    <linearGradient
       id="linearGradient3924-1">
      <stop
         offset="0"
         style="stop-color:#ffffff;stop-opacity:1"
         id="stop3926-3" />
      <stop
         offset="0.06316455"
         style="stop-color:#ffffff;stop-opacity:0.23529412"
         id="stop3928-91" />
      <stop
         offset="0.95056331"
         style="stop-color:#ffffff;stop-opacity:0.15686275"
         id="stop3930-6" />
      <stop
         offset="1"
         style="stop-color:#ffffff;stop-opacity:0.39215687"
         id="stop3932-6" />
    </linearGradient>
    <radialGradient
       gradientTransform="matrix(2.003784,0,0,1.4,27.98813,-17.4)"
       gradientUnits="userSpaceOnUse"
       xlink:href="#linearGradient3688-166-749"
       id="radialGradient3013"
       fy="43.5"
       fx="4.9929786"
       r="2.5"
       cy="43.5"
       cx="4.9929786" />
    <linearGradient
       id="linearGradient3688-166-749">
      <stop
         offset="0"
         style="stop-color:#181818;stop-opacity:1"
         id="stop2883" />
      <stop
         offset="1"
         style="stop-color:#181818;stop-opacity:0"
         id="stop2885" />
    </linearGradient>
    <radialGradient
       gradientTransform="matrix(2.003784,0,0,1.4,-20.01187,-104.4)"
       gradientUnits="userSpaceOnUse"
       xlink:href="#linearGradient3688-166-749"
       id="radialGradient3015"
       fy="43.5"
       fx="4.9929786"
       r="2.5"
       cy="43.5"
       cx="4.9929786" />
    <linearGradient
       id="linearGradient3702-501-757">
      <stop
         offset="0"
         style="stop-color:#181818;stop-opacity:0"
         id="stop2895" />
      <stop
         offset="0.5"
         style="stop-color:#181818;stop-opacity:1"
         id="stop2897" />
      <stop
         offset="1"
         style="stop-color:#181818;stop-opacity:0"
         id="stop2899" />
    </linearGradient>
    <linearGradient
       gradientUnits="userSpaceOnUse"
       xlink:href="#linearGradient3702-501-757"
       id="linearGradient3109"
       y2="39.999443"
       x2="25.058096"
       y1="47.027729"
       x1="25.058096" />
    <linearGradient
       id="linearGradient3242-7-3-8-0-4-58-06">
      <stop
         offset="0"
         style="stop-color:#8cd5ff;stop-opacity:1"
         id="stop3244-5-8-5-6-4-3-8" />
      <stop
         offset="0.26238"
         style="stop-color:#64baff;stop-opacity:1"
         id="stop3246-9-5-1-5-3-0-7" />
      <stop
         offset="0.66093999"
         style="stop-color:#3689e6;stop-opacity:1"
         id="stop3248-7-2-0-7-5-35-9" />
      <stop
         offset="1"
         style="stop-color:#0d52bf;stop-opacity:1"
         id="stop3250-8-2-8-5-6-40-4" />
    </linearGradient>
    <linearGradient
       gradientTransform="translate(4e-6,0.75000619)"
       gradientUnits="userSpaceOnUse"
       xlink:href="#linearGradient3924-1"
       id="linearGradient3991"
       y2="43"
       x2="23.99999"
       y1="4.999989"
       x1="23.99999" />
    <linearGradient
       gradientTransform="matrix(0.70909089,0,0,0.70909089,1.309104,2.0590923)"
       gradientUnits="userSpaceOnUse"
       xlink:href="#linearGradient3242-7-3-8-0-4-58-06"
       id="linearGradient4036"
       y2="48.933952"
       x2="24.169817"
       y1="-12.24244"
       x1="24.169817" />
    <linearGradient
       gradientTransform="matrix(0.99999997,0,0,0.37500001,1.801756e-6,8.7500009)"
       gradientUnits="userSpaceOnUse"
       xlink:href="#linearGradient23419"
       id="linearGradient4043"
       y2="19.963179"
       x2="23.954144"
       y1="15.999304"
       x1="23.954144" />
    <linearGradient
       gradientTransform="matrix(0.89153988,0,0,0.8548797,2.6030444,1.4165388)"
       gradientUnits="userSpaceOnUse"
       xlink:href="#linearGradient4658-9"
       id="linearGradient4046-7"
       y2="48.395687"
       x2="25.132275"
       y1="15.499894"
       x1="25.132275" />
    <linearGradient
       id="linearGradient4658-9">
      <stop
         offset="0"
         style="stop-color:#fafafa;stop-opacity:1"
         id="stop4660-7" />
      <stop
         offset="1"
         style="stop-color:#e2e1de;stop-opacity:1"
         id="stop4662-3" />
    </linearGradient>
    <linearGradient
       gradientTransform="translate(4e-6,0.75000599)"
       gradientUnits="userSpaceOnUse"
       xlink:href="#linearGradient3924-1"
       id="linearGradient4100"
       y2="43"
       x2="23.99999"
       y1="4.999989"
       x1="23.99999" />
    <radialGradient
       cx="99.157013"
       cy="186.17059"
       r="62.769119"
       fx="99.157013"
       fy="186.17059"
       id="radialGradient3018-7"
       xlink:href="#linearGradient23419"
       gradientUnits="userSpaceOnUse"
       gradientTransform="matrix(0.18029682,0,0,0.05942685,-1.8776934,16.207162)" />
    <linearGradient
       y2="208"
       x2="252"
       y1="152"
       x1="196"
       gradientTransform="matrix(0.49152541,0,0,0.47542369,-93.85593,-70.051269)"
       gradientUnits="userSpaceOnUse"
       id="linearGradient8444-5"
       xlink:href="#linearGradient4140" />
    <linearGradient
       y2="210"
       x2="368"
       y1="98"
       x1="304"
       gradientTransform="matrix(0.27808187,0,0,0.28749999,-108.96049,-60.274968)"
       gradientUnits="userSpaceOnUse"
       id="linearGradient8452-6"
       xlink:href="#linearGradient4251" />
    <linearGradient
       x1="23.99999"
       y1="4.999989"
       x2="23.99999"
       y2="43"
       id="linearGradient3223"
       xlink:href="#linearGradient3924-1"
       gradientUnits="userSpaceOnUse"
       gradientTransform="matrix(0.67567568,0,0,0.64864865,-0.21621703,0.93244198)" />
    <radialGradient
       cx="4.9929786"
       cy="43.5"
       r="2.5"
       fx="4.9929786"
       fy="43.5"
       id="radialGradient4002"
       xlink:href="#linearGradient3688-166-749"
       gradientUnits="userSpaceOnUse"
       gradientTransform="matrix(2.003784,0,0,1.4,27.98813,-17.4)" />
    <radialGradient
       cx="4.9929786"
       cy="43.5"
       r="2.5"
       fx="4.9929786"
       fy="43.5"
       id="radialGradient4004"
       xlink:href="#linearGradient3688-166-749"
       gradientUnits="userSpaceOnUse"
       gradientTransform="matrix(2.003784,0,0,1.4,-20.01187,-104.4)" />
    <linearGradient
       x1="23.954144"
       y1="15.999304"
       x2="23.954144"
       y2="19.963179"
       id="linearGradient4056"
       xlink:href="#linearGradient23419"
       gradientUnits="userSpaceOnUse"
       gradientTransform="matrix(0.69999998,0,0,0.26923077,-0.80000019,5.6153856)" />
    <linearGradient
       x1="25.132275"
       y1="15.499894"
       x2="25.132275"
       y2="48.395687"
       id="linearGradient4059-1"
       xlink:href="#linearGradient4658-9"
       gradientUnits="userSpaceOnUse"
       gradientTransform="matrix(0.56307783,0,0,0.53992403,2.4861325,2.5707699)" />
    <linearGradient
       x1="24.169817"
       y1="-12.24244"
       x2="24.169817"
       y2="48.933952"
       id="linearGradient4052-7"
       xlink:href="#linearGradient3242-7-3-8-0-4-58-06"
       gradientUnits="userSpaceOnUse"
       gradientTransform="matrix(0.45454545,0,0,0.45454545,0.454544,1.454547)" />
    <linearGradient
       x1="23.99999"
       y1="4.999989"
       x2="23.99999"
       y2="43"
       id="linearGradient4307"
       xlink:href="#linearGradient3924-1"
       gradientUnits="userSpaceOnUse"
       gradientTransform="matrix(0.62162164,0,0,0.62162164,0.0810794,1.0810903)" />
    <filter
       inkscape:collect="always"
       style="color-interpolation-filters:sRGB"
       id="filter1069"
       x="-0.032946328"
       width="1.0658927"
       y="-0.33546502"
       height="1.67093">
      <feGaussianBlur
         inkscape:collect="always"
         stdDeviation="0.4217537"
         id="feGaussianBlur1071" />
    </filter>
    <linearGradient
       inkscape:collect="always"
       xlink:href="#linearGradient4658-9"
       id="linearGradient890"
       x1="24"
       y1="3"
       x2="24"
       y2="45"
       gradientUnits="userSpaceOnUse" />
  </defs>
  <metadata
     id="metadata7">
    <rdf:RDF>
      <cc:Work
         rdf:about="">
        <dc:format>image/svg+xml</dc:format>
        <dc:type
           rdf:resource="http://purl.org/dc/dcmitype/StillImage" />
        <dc:title />
      </cc:Work>
    </rdf:RDF>
  </metadata>
  <ellipse
     style="opacity:0.14800002;fill:#000000;fill-opacity:1;stroke:none;stroke-width:1.11905754;stroke-linecap:round;stroke-linejoin:round;stroke-opacity:0.36315792;filter:url(#filter1069)"
     id="path1059"
     cx="24.373692"
     cy="44.479126"
     rx="15.361483"
     ry="1.5086653"
     transform="matrix(1,0,0,0.77109867,0,10.526666)" />
  <circle
     style="fill:url(#linearGradient890);fill-opacity:1;stroke:#000000;stroke-width:1;stroke-miterlimit:4;stroke-dasharray:none;stroke-opacity:0.36315792"
     id="path886"
     cx="24.000002"
     cy="24"
     r="20.5" />
  <rect
     style="fill:#abacae;fill-opacity:1;stroke:none;stroke-width:1;stroke-miterlimit:4;stroke-dasharray:none;stroke-opacity:0.18947371"
     id="rect929"
     width="19"
     height="0.99999988"
     x="16"
     y="19" />
  <rect
     style="fill:#abacae;fill-opacity:1;stroke:none;stroke-width:1;stroke-miterlimit:4;stroke-dasharray:none;stroke-opacity:0.18947371"
     id="rect931"
     width="19"
     height="0.9999997"
     x="16"
     y="34" />
  <path
     inkscape:connector-curvature="0"
     style="color:#000000;font-style:normal;font-variant:normal;font-weight:normal;font-stretch:normal;font-size:medium;line-height:normal;font-family:sans-serif;font-variant-ligatures:normal;font-variant-position:normal;font-variant-caps:normal;font-variant-numeric:normal;font-variant-alternates:normal;font-feature-settings:normal;text-indent:0;text-align:start;text-decoration:none;text-decoration-line:none;text-decoration-style:solid;text-decoration-color:#000000;letter-spacing:normal;word-spacing:normal;text-transform:none;writing-mode:lr-tb;direction:ltr;text-orientation:mixed;dominant-baseline:auto;baseline-shift:baseline;text-anchor:start;white-space:normal;shape-padding:0;clip-rule:nonzero;display:inline;overflow:visible;visibility:visible;opacity:0.139;isolation:auto;mix-blend-mode:normal;color-interpolation:sRGB;color-interpolation-filters:linearRGB;solid-color:#000000;solid-opacity:1;vector-effect:none;fill:#000000;fill-opacity:1;fill-rule:nonzero;stroke:none;stroke-width:2;stroke-linecap:round;stroke-linejoin:round;stroke-miterlimit:4;stroke-dasharray:none;stroke-dashoffset:0;stroke-opacity:1;color-rendering:auto;image-rendering:auto;shape-rendering:auto;text-rendering:auto;enable-background:accumulate"
     d="m 11.019534,10.019011 a 1.0001,1.0001 0 0 0 -0.09961,0.0039 1.0001,1.0001 0 0 0 -0.197266,0.03906 1.0001,1.0001 0 0 0 -0.183594,0.07617 1.0001,1.0001 0 0 0 -0.166015,0.111328 1.0001,1.0001 0 0 0 -0.07422,0.06641 1.0001,1.0001 0 0 0 -0.273437,0.523437 1.0001,1.0001 0 0 0 -0.01172,0.09961 1.0001,1.0001 0 0 0 0.01953,0.298829 1.0001,1.0001 0 0 0 0.02734,0.0957 1.0001,1.0001 0 0 0 0.134765,0.267578 1.0001,1.0001 0 0 0 0.0625,0.07813 1.0001,1.0001 0 0 0 0.0078,0.0098 l 12.777344,13.796874 a 1.0001,1.0001 0 0 0 0.07422,0.06836 1.0001,1.0001 0 0 0 0.132812,0.09375 1.0001,1.0001 0 0 0 0.01367,0.01758 1.0001,1.0001 0 0 0 0.146484,0.134766 1.0001,1.0001 0 0 0 0.08398,0.05664 1.0001,1.0001 0 0 0 0.179687,0.08398 1.0001,1.0001 0 0 0 0.195313,0.04883 1.0001,1.0001 0 0 0 0.298828,-0.002 1.0001,1.0001 0 0 0 0.371093,-0.140625 1.0001,1.0001 0 0 0 0.167969,-0.13086 l 10,-10 a 1.0001,1.0001 0 0 0 0.125,-0.15625 1.0001,1.0001 0 0 0 0.08984,-0.177734 1.0001,1.0001 0 0 0 0.05273,-0.193359 1.0001,1.0001 0 0 0 0.01367,-0.09766 1.0001,1.0001 0 0 0 0.002,-0.101562 1.0001,1.0001 0 0 0 -0.02539,-0.197266 1.0001,1.0001 0 0 0 -0.111328,-0.277344 1.0001,1.0001 0 0 0 -0.05469,-0.08398 1.0001,1.0001 0 0 0 -0.0625,-0.07813 1.0001,1.0001 0 0 0 -0.318359,-0.238281 1.0001,1.0001 0 0 0 -0.28711,-0.08594 1.0001,1.0001 0 0 0 -0.199218,-0.0078 1.0001,1.0001 0 0 0 -0.197266,0.03125 1.0001,1.0001 0 0 0 -0.1875,0.07031 1.0001,1.0001 0 0 0 -0.08594,0.04883 1.0001,1.0001 0 0 0 -0.08203,0.05664 1.0001,1.0001 0 0 0 -0.08594,0.07422 L 24.009769,23.585417 11.734378,10.329558 a 1.0001,1.0001 0 0 0 -0.07227,-0.06836 1.0001,1.0001 0 0 0 -0.08008,-0.0625 1.0001,1.0001 0 0 0 -0.173828,-0.0957 1.0001,1.0001 0 0 0 -0.09375,-0.03516 1.0001,1.0001 0 0 0 -0.195312,-0.04297 1.0001,1.0001 0 0 0 -0.09961,-0.0059 z"
     id="path935-3" />
  <path
     style="color:#000000;font-style:normal;font-variant:normal;font-weight:normal;font-stretch:normal;font-size:medium;line-height:normal;font-family:sans-serif;font-variant-ligatures:normal;font-variant-position:normal;font-variant-caps:normal;font-variant-numeric:normal;font-variant-alternates:normal;font-feature-settings:normal;text-indent:0;text-align:start;text-decoration:none;text-decoration-line:none;text-decoration-style:solid;text-decoration-color:#000000;letter-spacing:normal;word-spacing:normal;text-transform:none;writing-mode:lr-tb;direction:ltr;text-orientation:mixed;dominant-baseline:auto;baseline-shift:baseline;text-anchor:start;white-space:normal;shape-padding:0;clip-rule:nonzero;display:inline;overflow:visible;visibility:visible;opacity:1;isolation:auto;mix-blend-mode:normal;color-interpolation:sRGB;color-interpolation-filters:linearRGB;solid-color:#000000;solid-opacity:1;vector-effect:none;fill:#273445;fill-opacity:1;fill-rule:nonzero;stroke:none;stroke-width:2;stroke-linecap:round;stroke-linejoin:round;stroke-miterlimit:4;stroke-dasharray:none;stroke-dashoffset:0;stroke-opacity:1;color-rendering:auto;image-rendering:auto;shape-rendering:auto;text-rendering:auto;enable-background:accumulate"
     d="M 11.019531 9.0097656 A 1.0001 1.0001 0 0 0 10.919922 9.0136719 A 1.0001 1.0001 0 0 0 10.722656 9.0527344 A 1.0001 1.0001 0 0 0 10.539062 9.1289062 A 1.0001 1.0001 0 0 0 10.373047 9.2402344 A 1.0001 1.0001 0 0 0 10.298828 9.3066406 A 1.0001 1.0001 0 0 0 10.025391 9.8300781 A 1.0001 1.0001 0 0 0 10.013672 9.9296875 A 1.0001 1.0001 0 0 0 10.033203 10.228516 A 1.0001 1.0001 0 0 0 10.060547 10.324219 A 1.0001 1.0001 0 0 0 10.195312 10.591797 A 1.0001 1.0001 0 0 0 10.257812 10.669922 A 1.0001 1.0001 0 0 0 10.265625 10.679688 L 23.042969 24.476562 A 1.0001 1.0001 0 0 0 23.117188 24.544922 A 1.0001 1.0001 0 0 0 23.25 24.638672 A 1.0001 1.0001 0 0 0 23.263672 24.65625 A 1.0001 1.0001 0 0 0 23.410156 24.791016 A 1.0001 1.0001 0 0 0 23.494141 24.847656 A 1.0001 1.0001 0 0 0 23.673828 24.931641 A 1.0001 1.0001 0 0 0 23.869141 24.980469 A 1.0001 1.0001 0 0 0 24.167969 24.978516 A 1.0001 1.0001 0 0 0 24.539062 24.837891 A 1.0001 1.0001 0 0 0 24.707031 24.707031 L 34.707031 14.707031 A 1.0001 1.0001 0 0 0 34.832031 14.550781 A 1.0001 1.0001 0 0 0 34.921875 14.373047 A 1.0001 1.0001 0 0 0 34.974609 14.179688 A 1.0001 1.0001 0 0 0 34.988281 14.082031 A 1.0001 1.0001 0 0 0 34.990234 13.980469 A 1.0001 1.0001 0 0 0 34.964844 13.783203 A 1.0001 1.0001 0 0 0 34.853516 13.505859 A 1.0001 1.0001 0 0 0 34.798828 13.421875 A 1.0001 1.0001 0 0 0 34.736328 13.34375 A 1.0001 1.0001 0 0 0 34.417969 13.105469 A 1.0001 1.0001 0 0 0 34.130859 13.019531 A 1.0001 1.0001 0 0 0 33.931641 13.011719 A 1.0001 1.0001 0 0 0 33.734375 13.042969 A 1.0001 1.0001 0 0 0 33.546875 13.113281 A 1.0001 1.0001 0 0 0 33.460938 13.162109 A 1.0001 1.0001 0 0 0 33.378906 13.21875 A 1.0001 1.0001 0 0 0 33.292969 13.292969 L 24.009766 22.576172 L 11.734375 9.3203125 A 1.0001 1.0001 0 0 0 11.662109 9.2519531 A 1.0001 1.0001 0 0 0 11.582031 9.1894531 A 1.0001 1.0001 0 0 0 11.408203 9.09375 A 1.0001 1.0001 0 0 0 11.314453 9.0585938 A 1.0001 1.0001 0 0 0 11.119141 9.015625 A 1.0001 1.0001 0 0 0 11.019531 9.0097656 z "
     id="path935" />
  <circle
     style="fill:#a56de2;fill-opacity:1;stroke:none;stroke-width:1;stroke-linecap:round;stroke-linejoin:round;stroke-miterlimit:4;stroke-dasharray:none;stroke-opacity:0.18947371"
     id="path982"
     cx="12.5"
     cy="19.5"
     r="1.5" />
  <circle
     style="fill:#a56de2;fill-opacity:1;stroke:none;stroke-width:1;stroke-linecap:round;stroke-linejoin:round;stroke-miterlimit:4;stroke-dasharray:none;stroke-opacity:0.18947371"
     id="path984"
     cx="12.5"
     cy="34.5"
     r="1.5" />
  <rect
     style="fill:#abacae;fill-opacity:1;stroke:none;stroke-width:1;stroke-miterlimit:4;stroke-dasharray:none;stroke-opacity:0.18947371"
     id="rect931-3"
     width="19"
     height="0.99999976"
     x="16"
     y="27" />
  <circle
     style="fill:#a56de2;fill-opacity:1;stroke:none;stroke-width:1;stroke-linecap:round;stroke-linejoin:round;stroke-miterlimit:4;stroke-dasharray:none;stroke-opacity:0.18947371"
     id="path982-5"
     cx="12.5"
     cy="27.5"
     r="1.5" />
</svg>
