<?xml version="1.0" encoding="UTF-8" standalone="no"?>
<svg
   xmlns:dc="http://purl.org/dc/elements/1.1/"
   xmlns:cc="http://creativecommons.org/ns#"
   xmlns:rdf="http://www.w3.org/1999/02/22-rdf-syntax-ns#"
   xmlns:svg="http://www.w3.org/2000/svg"
   xmlns="http://www.w3.org/2000/svg"
   xmlns:xlink="http://www.w3.org/1999/xlink"
   xmlns:sodipodi="http://sodipodi.sourceforge.net/DTD/sodipodi-0.dtd"
   xmlns:inkscape="http://www.inkscape.org/namespaces/inkscape"
   width="128"
   height="128"
   viewBox="0 0 128 128"
   id="svg2"
   version="1.1"
   inkscape:version="0.92.5 (2060ec1f9f, 2020-04-08)"
   sodipodi:docname="com.github.lainsce.khronos.svg"
   inkscape:export-filename="/home/lainsce/Documenti/Projects/khronos/data/icon.png"
   inkscape:export-xdpi="96"
   inkscape:export-ydpi="96">
  <sodipodi:namedview
     pagecolor="#ffffff"
     bordercolor="#666666"
     borderopacity="1"
     objecttolerance="10"
     gridtolerance="10"
     guidetolerance="10"
     inkscape:pageopacity="0"
     inkscape:pageshadow="2"
     inkscape:window-width="2560"
     inkscape:window-height="964"
     id="namedview40"
     showgrid="true"
     inkscape:zoom="5.2149125"
     inkscape:cx="4.7973192"
     inkscape:cy="55.86635"
     inkscape:window-x="0"
     inkscape:window-y="30"
     inkscape:window-maximized="1"
     inkscape:current-layer="svg2"
     inkscape:snap-global="false">
    <inkscape:grid
       type="xygrid"
       id="grid845" />
  </sodipodi:namedview>
  <defs
     id="defs4">
    <linearGradient
       id="linearGradient23419">
      <stop
         id="stop23421"
         style="stop-color:#000000;stop-opacity:1"
         offset="0" />
      <stop
         id="stop23423"
         style="stop-color:#000000;stop-opacity:0"
         offset="1" />
    </linearGradient>
    <linearGradient
       xlink:href="#linearGradient4806-2-9"
       id="linearGradient6927"
       gradientUnits="userSpaceOnUse"
       gradientTransform="matrix(1.7553612,0,0,1.7553612,-94.69513,-16.91647)"
       x1="71.204407"
       y1="15.369057"
       x2="71.204407"
       y2="40.495617" />
    <linearGradient
       id="linearGradient4806-2-9">
      <stop
         id="stop4808-4-6"
         style="stop-color:#ffffff;stop-opacity:1"
         offset="0" />
      <stop
         id="stop4810-0-9"
         style="stop-color:#ffffff;stop-opacity:0.23529412"
         offset="0.42447853" />
      <stop
         id="stop4812-8-7"
         style="stop-color:#ffffff;stop-opacity:0.15686275"
         offset="0.82089913" />
      <stop
         id="stop4814-0-7"
         style="stop-color:#ffffff;stop-opacity:0.39215687"
         offset="1" />
    </linearGradient>
    <linearGradient
       xlink:href="#linearGradient4806-2-9"
       id="linearGradient6923"
       gradientUnits="userSpaceOnUse"
       gradientTransform="matrix(1.9186506,0,0,-1.9186506,-106.48073,85.46685)"
       x1="71.204407"
       y1="15.369057"
       x2="71.204407"
       y2="40.495617" />
    <linearGradient
       xlink:href="#linearGradient4251"
       id="linearGradient6919"
       gradientUnits="userSpaceOnUse"
       gradientTransform="matrix(0.5625,0,0,0.5625,-221,-118.62498)"
       x1="304"
       y1="98"
       x2="368"
       y2="210" />
    <linearGradient
       id="linearGradient4251">
      <stop
         id="stop4259"
         offset="0"
         style="stop-color:#cccccc;stop-opacity:1" />
      <stop
         style="stop-color:#f4f4f4;stop-opacity:1"
         offset="0.51999998"
         id="stop6460" />
      <stop
         style="stop-color:#c1c1c1;stop-opacity:1"
         offset="1"
         id="stop4183" />
    </linearGradient>
    <linearGradient
       x1="71.204407"
       y1="15.369057"
       x2="71.204407"
       y2="40.495617"
       id="linearGradient3293"
       xlink:href="#linearGradient4806-2-9"
       gradientUnits="userSpaceOnUse"
       gradientTransform="matrix(2.3268746,0,0,2.3268746,-135.94475,-32.84278)" />
    <linearGradient
       xlink:href="#linearGradient4140"
       id="linearGradient6915"
       x1="196"
       y1="152"
       x2="252"
       y2="208"
       gradientUnits="userSpaceOnUse"
       gradientTransform="translate(-191.5,-148)" />
    <linearGradient
       id="linearGradient4140">
      <stop
         id="stop4142"
         offset="0"
         style="stop-color:#f9c440;stop-opacity:1" />
      <stop
         style="stop-color:#fff394;stop-opacity:1"
         offset="0.50190115"
         id="stop5784" />
      <stop
         id="stop4144"
         offset="1"
         style="stop-color:#f9c440;stop-opacity:1" />
    </linearGradient>
    <radialGradient
       xlink:href="#linearGradient23419"
       id="radialGradient3300-9"
       gradientUnits="userSpaceOnUse"
       gradientTransform="matrix(0.3823536,7.5555777e-8,-1.8372241e-8,0.1115198,-5.9254271,36.335849)"
       cx="99.189415"
       cy="185.29727"
       fx="99.189415"
       fy="185.29727"
       r="62.769119" />
    <radialGradient
       xlink:href="#linearGradient23419"
       id="radialGradient4192"
       gradientUnits="userSpaceOnUse"
       gradientTransform="matrix(0.2549024,5.3967361e-8,-1.2248161e-8,0.07965545,6.7163816,44.240666)"
       cx="99.189415"
       cy="185.29727"
       fx="99.189415"
       fy="185.29727"
       r="62.769119" />
    <linearGradient
       id="linearGradient4658">
      <stop
         offset="0"
         style="stop-color:#fafafa;stop-opacity:1;"
         id="stop4660" />
      <stop
         offset="1"
         style="stop-color:#e2e1de;stop-opacity:1;"
         id="stop4662" />
    </linearGradient>
    <radialGradient
       gradientTransform="matrix(2.003784,0,0,1.4,27.98813,-17.4)"
       gradientUnits="userSpaceOnUse"
       xlink:href="#linearGradient3688-166-749-4-0-3-8-1"
       id="radialGradient3337-2-2-8"
       fy="43.5"
       fx="4.9929786"
       r="2.5"
       cy="43.5"
       cx="4.9929786" />
    <linearGradient
       id="linearGradient3688-166-749-4-0-3-8-1">
      <stop
         offset="0"
         style="stop-color:#181818;stop-opacity:1"
         id="stop2883-4-0-1-8-1" />
      <stop
         offset="1"
         style="stop-color:#181818;stop-opacity:0"
         id="stop2885-9-2-9-6-6" />
    </linearGradient>
    <radialGradient
       gradientTransform="matrix(2.003784,0,0,1.4,-20.01187,-104.4)"
       gradientUnits="userSpaceOnUse"
       xlink:href="#linearGradient3688-166-749-4-0-3-8-1"
       id="radialGradient3339-1-4-96"
       fy="43.5"
       fx="4.9929786"
       r="2.5"
       cy="43.5"
       cx="4.9929786" />
    <linearGradient
       id="linearGradient3702-501-757-8-4-1-1-4">
      <stop
         offset="0"
         style="stop-color:#181818;stop-opacity:0"
         id="stop2895-8-9-9-1-7" />
      <stop
         offset="0.5"
         style="stop-color:#181818;stop-opacity:1"
         id="stop2897-7-8-7-7-6" />
      <stop
         offset="1"
         style="stop-color:#181818;stop-opacity:0"
         id="stop2899-4-5-1-5-0" />
    </linearGradient>
    <linearGradient
       gradientUnits="userSpaceOnUse"
       xlink:href="#linearGradient3702-501-757-8-4-1-1-4"
       id="linearGradient5515"
       y2="39.999443"
       x2="25.058096"
       y1="47.027729"
       x1="25.058096" />
    <linearGradient
       id="linearGradient3924-2-2-5-8-0">
      <stop
         id="stop3926-9-4-9-6-6"
         style="stop-color:#ffffff;stop-opacity:1"
         offset="0" />
      <stop
         id="stop3928-9-8-6-5-1"
         style="stop-color:#ffffff;stop-opacity:0.23529412"
         offset="0.06316455" />
      <stop
         id="stop3930-3-5-1-7-98"
         style="stop-color:#ffffff;stop-opacity:0.15686275"
         offset="0.95056331" />
      <stop
         id="stop3932-8-0-4-8-60"
         style="stop-color:#ffffff;stop-opacity:0.39215687"
         offset="1" />
    </linearGradient>
    <linearGradient
       y2="43"
       x2="23.99999"
       y1="4.999989"
       x1="23.99999"
       gradientTransform="matrix(2.8648648,0,0,2.8648648,-4.7567512,-3.756748)"
       gradientUnits="userSpaceOnUse"
       id="linearGradient3681"
       xlink:href="#linearGradient3924-2-2-5-8-0" />
    <linearGradient
       y2="43"
       x2="23.99999"
       y1="4.999989"
       x1="23.99999"
       gradientTransform="matrix(2.8648648,0,0,2.8648648,-114.75675,12.243252)"
       gradientUnits="userSpaceOnUse"
       id="linearGradient3681-6"
       xlink:href="#linearGradient3924-2-2-5-8-0" />
    <linearGradient
       id="linearGradient3242-7-3-8-0-4-58-06">
      <stop
         offset="0"
         style="stop-color:#8cd5ff;stop-opacity:1"
         id="stop3244-5-8-5-6-4-3-8" />
      <stop
         offset="0.26238"
         style="stop-color:#64baff;stop-opacity:1"
         id="stop3246-9-5-1-5-3-0-7" />
      <stop
         offset="0.66093999"
         style="stop-color:#3689e6;stop-opacity:1"
         id="stop3248-7-2-0-7-5-35-9" />
      <stop
         offset="1"
         style="stop-color:#0d52bf;stop-opacity:1"
         id="stop3250-8-2-8-5-6-40-4" />
    </linearGradient>
    <linearGradient
       y2="48.395687"
       x2="25.132275"
       y1="15.499894"
       x1="25.132275"
       gradientTransform="matrix(2.5807734,0,0,2.4746518,2.0614434,-1.133976)"
       gradientUnits="userSpaceOnUse"
       id="linearGradient4556-9"
       xlink:href="#linearGradient4658" />
    <linearGradient
       gradientUnits="userSpaceOnUse"
       y2="48.933952"
       x2="24.169817"
       y1="-12.24244"
       x1="24.169817"
       id="linearGradient4654"
       xlink:href="#linearGradient3242-7-3-8-0-4-58-06"
       gradientTransform="matrix(2,0,0,2,0,1)" />
    <linearGradient
       y2="19.963179"
       x2="23.954144"
       y1="15.999304"
       x1="23.954144"
       gradientTransform="matrix(2.8,0,0,1,-3.1999972,21.000002)"
       gradientUnits="userSpaceOnUse"
       id="linearGradient4656"
       xlink:href="#linearGradient23419" />
    <linearGradient
       x1="302.85715"
       y1="366.64789"
       x2="302.85715"
       y2="609.50507"
       id="linearGradient3128"
       xlink:href="#linearGradient5048"
       gradientUnits="userSpaceOnUse"
       gradientTransform="matrix(0.09153846,0,0,0.02058823,-1.084616,49.45142)" />
    <linearGradient
       id="linearGradient5048">
      <stop
         id="stop5050"
         style="stop-color:#000000;stop-opacity:0"
         offset="0" />
      <stop
         id="stop5056"
         style="stop-color:#000000;stop-opacity:1"
         offset="0.5" />
      <stop
         id="stop5052"
         style="stop-color:#000000;stop-opacity:0"
         offset="1" />
    </linearGradient>
    <radialGradient
       cx="605.71429"
       cy="486.64789"
       r="117.14286"
       fx="605.71429"
       fy="486.64789"
       id="radialGradient3060"
       xlink:href="#linearGradient23419"
       gradientUnits="userSpaceOnUse"
       gradientTransform="matrix(-0.03132632,0,0,0.02058823,28.779136,49.45142)" />
    <radialGradient
       cx="605.71429"
       cy="486.64789"
       r="117.14286"
       fx="605.71429"
       fy="486.64789"
       id="radialGradient3057"
       xlink:href="#linearGradient23419"
       gradientUnits="userSpaceOnUse"
       gradientTransform="matrix(0.03132633,0,0,0.02058823,35.220859,49.45142)" />
    <linearGradient
       id="linearGradient3600-9">
      <stop
         id="stop3602-3"
         style="stop-color:#f4f4f4;stop-opacity:1"
         offset="0" />
      <stop
         id="stop3604-7"
         style="stop-color:#dbdbdb;stop-opacity:1"
         offset="1" />
    </linearGradient>
    <linearGradient
       x1="25.132275"
       y1="0.98520643"
       x2="25.132275"
       y2="47.013336"
       id="linearGradient3054"
       xlink:href="#linearGradient3600-9"
       gradientUnits="userSpaceOnUse"
       gradientTransform="matrix(1.3142827,0,0,1.2602393,0.4572141,-2.1793201)" />
    <linearGradient
       id="linearGradient3977-4">
      <stop
         id="stop3979-7"
         style="stop-color:#ffffff;stop-opacity:1"
         offset="0" />
      <stop
         id="stop3981-6"
         style="stop-color:#ffffff;stop-opacity:0.23529412"
         offset="0.01214366" />
      <stop
         id="stop3983-5"
         style="stop-color:#ffffff;stop-opacity:0.15686275"
         offset="0.98781353" />
      <stop
         id="stop3985-6"
         style="stop-color:#ffffff;stop-opacity:0.39215687"
         offset="1" />
    </linearGradient>
    <linearGradient
       x1="23.99999"
       y1="5.8641062"
       x2="23.99999"
       y2="42.100208"
       id="linearGradient3051"
       xlink:href="#linearGradient3977-4"
       gradientUnits="userSpaceOnUse"
       gradientTransform="matrix(1.2162162,0,0,1.5405376,2.8108184,-6.9729501)" />
    <linearGradient
       id="linearGradient3104-6">
      <stop
         id="stop3106-3"
         style="stop-color:#000000;stop-opacity:0.31782946"
         offset="0" />
      <stop
         id="stop3108-9"
         style="stop-color:#000000;stop-opacity:0.24031007"
         offset="1" />
    </linearGradient>
    <linearGradient
       x1="-51.786404"
       y1="50.786446"
       x2="-51.786404"
       y2="2.9062471"
       id="linearGradient3048"
       xlink:href="#linearGradient3104-6"
       gradientUnits="userSpaceOnUse"
       gradientTransform="matrix(1.0843523,0,0,1.1997367,79.550862,-4.1628601)" />
    <radialGradient
       gradientTransform="matrix(2.003784,0,0,1.4,27.98813,-17.4)"
       gradientUnits="userSpaceOnUse"
       xlink:href="#linearGradient3688-166-749-4-0-3-8-1"
       id="radialGradient4093"
       fy="43.5"
       fx="4.9929786"
       r="2.5"
       cy="43.5"
       cx="4.9929786" />
    <radialGradient
       gradientTransform="matrix(2.003784,0,0,1.4,-20.01187,-104.4)"
       gradientUnits="userSpaceOnUse"
       xlink:href="#linearGradient3688-166-749-4-0-3-8-1"
       id="radialGradient4095"
       fy="43.5"
       fx="4.9929786"
       r="2.5"
       cy="43.5"
       cx="4.9929786" />
    <linearGradient
       gradientUnits="userSpaceOnUse"
       xlink:href="#linearGradient3702-501-757-8-4-1-1-4"
       id="linearGradient4097"
       y2="39.999443"
       x2="25.058096"
       y1="47.027729"
       x1="25.058096" />
    <linearGradient
       id="linearGradient3242-7-3-8-0-4-58-06-3">
      <stop
         offset="0"
         style="stop-color:#cdf87e;stop-opacity:1"
         id="stop3244-5-8-5-6-4-3-8-6" />
      <stop
         offset="0.26238"
         style="stop-color:#a2e34f;stop-opacity:1"
         id="stop3246-9-5-1-5-3-0-7-7" />
      <stop
         offset="0.66093999"
         style="stop-color:#68b723;stop-opacity:1"
         id="stop3248-7-2-0-7-5-35-9-5" />
      <stop
         offset="1"
         style="stop-color:#1d7e0d;stop-opacity:1"
         id="stop3250-8-2-8-5-6-40-4-3" />
    </linearGradient>
    <linearGradient
       gradientTransform="matrix(2.7297298,0,0,2.7297298,-2.5135187,0.4877882)"
       gradientUnits="userSpaceOnUse"
       xlink:href="#linearGradient3924-2-2-5-8-0"
       id="linearGradient3202"
       y2="43"
       x2="23.99999"
       y1="4.999989"
       x1="23.99999" />
    <radialGradient
       gradientTransform="matrix(1.5563924,0,0,0.16978827,69.270354,101.13157)"
       gradientUnits="userSpaceOnUse"
       xlink:href="#linearGradient23419"
       id="radialGradient3213"
       fy="93.467628"
       fx="-4.0287771"
       r="35.338131"
       cy="93.467628"
       cx="-4.0287771" />
    <linearGradient
       gradientTransform="matrix(1.8727272,0,0,1.9230769,3.0727266,5.8456231)"
       gradientUnits="userSpaceOnUse"
       xlink:href="#linearGradient3242-7-3-8-0-4-58-06"
       id="linearGradient3278"
       y2="48.933952"
       x2="24.169817"
       y1="-12.24244"
       x1="24.169817" />
    <linearGradient
       gradientTransform="matrix(2.6000001,0,0,0.75,0.600002,27.999471)"
       gradientUnits="userSpaceOnUse"
       xlink:href="#linearGradient23419"
       id="linearGradient3285"
       y2="19.963179"
       x2="23.954144"
       y1="15.999304"
       x1="23.954144" />
    <linearGradient
       gradientTransform="matrix(2.3698469,0,0,2.2723986,6.1236811,5.2706189)"
       gradientUnits="userSpaceOnUse"
       xlink:href="#linearGradient4658"
       id="linearGradient3288-4"
       y2="48.395687"
       x2="25.132275"
       y1="15.499894"
       x1="25.132275" />
    <linearGradient
       gradientTransform="matrix(2.7297298,0,0,2.7297298,5.7431759,1.6898958)"
       gradientUnits="userSpaceOnUse"
       xlink:href="#linearGradient3924-2-2-5-8-0"
       id="linearGradient4108"
       y2="43"
       x2="23.99999"
       y1="4.999989"
       x1="23.99999" />
    <linearGradient
       gradientTransform="matrix(2.7297298,0,0,2.7297298,-2.5135182,0.4877902)"
       gradientUnits="userSpaceOnUse"
       xlink:href="#linearGradient3924-2-2-5-8-0"
       id="linearGradient4148"
       y2="43"
       x2="23.99999"
       y1="4.999989"
       x1="23.99999" />
    <radialGradient
       r="62.769119"
       fy="185.29727"
       fx="99.189415"
       cy="185.29727"
       cx="99.189415"
       gradientTransform="matrix(0.3823536,7.5555777e-8,-1.8372241e-8,0.1115198,-5.9254271,36.335849)"
       gradientUnits="userSpaceOnUse"
       id="radialGradient3300-9-0"
       xlink:href="#linearGradient23419" />
    <radialGradient
       r="62.769119"
       fy="185.29727"
       fx="99.189415"
       cy="185.29727"
       cx="99.189415"
       gradientTransform="matrix(0.2549024,5.3967361e-8,-1.2248161e-8,0.07965545,6.7163816,44.240666)"
       gradientUnits="userSpaceOnUse"
       id="radialGradient4192-6"
       xlink:href="#linearGradient23419" />
    <radialGradient
       cx="4.9929786"
       cy="43.5"
       r="2.5"
       fx="4.9929786"
       fy="43.5"
       id="radialGradient3337-2-2-8-1"
       xlink:href="#linearGradient3688-166-749-4-0-3-8-1"
       gradientUnits="userSpaceOnUse"
       gradientTransform="matrix(2.003784,0,0,1.4,27.98813,-17.4)" />
    <radialGradient
       cx="4.9929786"
       cy="43.5"
       r="2.5"
       fx="4.9929786"
       fy="43.5"
       id="radialGradient3339-1-4-96-9"
       xlink:href="#linearGradient3688-166-749-4-0-3-8-1"
       gradientUnits="userSpaceOnUse"
       gradientTransform="matrix(2.003784,0,0,1.4,-20.01187,-104.4)" />
    <linearGradient
       xlink:href="#linearGradient3924-2-2-5-8-0"
       id="linearGradient3681-2"
       gradientUnits="userSpaceOnUse"
       gradientTransform="matrix(1.4324324,0,0,1.4324324,-2.3783756,-1.8783739)"
       x1="23.99999"
       y1="4.999989"
       x2="23.99999"
       y2="43" />
    <linearGradient
       xlink:href="#linearGradient3924-2-2-5-8-0"
       id="linearGradient3681-6-2"
       gradientUnits="userSpaceOnUse"
       gradientTransform="matrix(1.4324324,0,0,1.4324324,-2.3783756,-1.8783738)"
       x1="23.99999"
       y1="4.999989"
       x2="23.99999"
       y2="43" />
    <linearGradient
       xlink:href="#linearGradient4658"
       id="linearGradient4556-9-1"
       gradientUnits="userSpaceOnUse"
       gradientTransform="matrix(1.2903867,0,0,1.2373259,1.0307217,-0.56698844)"
       x1="25.132275"
       y1="15.499894"
       x2="25.132275"
       y2="48.395687" />
    <linearGradient
       gradientTransform="translate(0,0.49999976)"
       xlink:href="#linearGradient3242-7-3-8-0-4-58-06"
       id="linearGradient4654-2"
       x1="24.169817"
       y1="-12.24244"
       x2="24.169817"
       y2="48.933952"
       gradientUnits="userSpaceOnUse" />
    <linearGradient
       xlink:href="#linearGradient23419"
       id="linearGradient4656-9"
       gradientUnits="userSpaceOnUse"
       gradientTransform="matrix(1.4,0,0,0.5,-1.5999986,10.500001)"
       x1="23.954144"
       y1="15.999304"
       x2="23.954144"
       y2="19.963179" />
    <radialGradient
       gradientTransform="matrix(-0.03132632,0,0,0.02058823,28.779136,49.45142)"
       gradientUnits="userSpaceOnUse"
       xlink:href="#linearGradient23419"
       id="radialGradient3060-4"
       fy="486.64789"
       fx="605.71429"
       r="117.14286"
       cy="486.64789"
       cx="605.71429" />
    <radialGradient
       gradientTransform="matrix(0.03132633,0,0,0.02058823,35.220859,49.45142)"
       gradientUnits="userSpaceOnUse"
       xlink:href="#linearGradient23419"
       id="radialGradient3057-7"
       fy="486.64789"
       fx="605.71429"
       r="117.14286"
       cy="486.64789"
       cx="605.71429" />
    <linearGradient
       xlink:href="#linearGradient4806-2-9"
       id="linearGradient8460"
       gradientUnits="userSpaceOnUse"
       gradientTransform="matrix(1.1838482,0,0,1.1838482,-61.44558,-8.99018)"
       x1="71.204407"
       y1="15.369057"
       x2="71.204407"
       y2="40.495617" />
    <linearGradient
       xlink:href="#linearGradient4806-2-9"
       id="linearGradient8456"
       gradientUnits="userSpaceOnUse"
       gradientTransform="matrix(1.3471377,0,0,-1.3471377,-73.23118,61.54055)"
       x1="71.204407"
       y1="15.369057"
       x2="71.204407"
       y2="40.495617" />
    <linearGradient
       xlink:href="#linearGradient4251"
       id="linearGradient8452"
       gradientUnits="userSpaceOnUse"
       gradientTransform="matrix(0.38749999,0,0,0.38749999,-154.19999,-83.67496)"
       x1="304"
       y1="98"
       x2="368"
       y2="210" />
    <linearGradient
       xlink:href="#linearGradient4806-2-9"
       id="linearGradient8448"
       gradientUnits="userSpaceOnUse"
       gradientTransform="matrix(1.5920718,0,0,1.5920718,-90.90958,-20.3661)"
       x1="71.204407"
       y1="15.369057"
       x2="71.204407"
       y2="40.495617" />
    <linearGradient
       xlink:href="#linearGradient4140"
       id="linearGradient8444"
       gradientUnits="userSpaceOnUse"
       gradientTransform="matrix(0.69491525,0,0,0.69491525,-131.31359,-101.08475)"
       x1="196"
       y1="152"
       x2="252"
       y2="208" />
    <radialGradient
       gradientTransform="matrix(0.25490241,0,0,0.08762273,-1.27539,25.1859)"
       gradientUnits="userSpaceOnUse"
       xlink:href="#linearGradient23419"
       id="radialGradient3018"
       fy="186.17059"
       fx="99.157013"
       r="62.769119"
       cy="186.17059"
       cx="99.157013" />
    <radialGradient
       gradientTransform="matrix(2.003784,0,0,1.4,27.98813,-17.4)"
       gradientUnits="userSpaceOnUse"
       xlink:href="#linearGradient3688-166-749-4-0-3-8-1"
       id="radialGradient3013"
       fy="43.5"
       fx="4.9929786"
       r="2.5"
       cy="43.5"
       cx="4.9929786" />
    <radialGradient
       gradientTransform="matrix(2.003784,0,0,1.4,-20.01187,-104.4)"
       gradientUnits="userSpaceOnUse"
       xlink:href="#linearGradient3688-166-749-4-0-3-8-1"
       id="radialGradient3015"
       fy="43.5"
       fx="4.9929786"
       r="2.5"
       cy="43.5"
       cx="4.9929786" />
    <linearGradient
       gradientTransform="translate(4e-6,0.75000619)"
       gradientUnits="userSpaceOnUse"
       xlink:href="#linearGradient3924-2-2-5-8-0"
       id="linearGradient3991"
       y2="43"
       x2="23.99999"
       y1="4.999989"
       x1="23.99999" />
    <linearGradient
       gradientTransform="matrix(0.70909089,0,0,0.70909089,1.309104,2.0590923)"
       gradientUnits="userSpaceOnUse"
       xlink:href="#linearGradient3242-7-3-8-0-4-58-06"
       id="linearGradient4036"
       y2="48.933952"
       x2="24.169817"
       y1="-12.24244"
       x1="24.169817" />
    <linearGradient
       gradientTransform="matrix(0.99999997,0,0,0.37500001,1.801756e-6,8.7500009)"
       gradientUnits="userSpaceOnUse"
       xlink:href="#linearGradient23419"
       id="linearGradient4043"
       y2="19.963179"
       x2="23.954144"
       y1="15.999304"
       x1="23.954144" />
    <linearGradient
       gradientTransform="matrix(0.89153988,0,0,0.8548797,2.6030444,1.4165388)"
       gradientUnits="userSpaceOnUse"
       xlink:href="#linearGradient4658"
       id="linearGradient4046-7"
       y2="48.395687"
       x2="25.132275"
       y1="15.499894"
       x1="25.132275" />
    <linearGradient
       gradientTransform="translate(4e-6,0.75000599)"
       gradientUnits="userSpaceOnUse"
       xlink:href="#linearGradient3924-2-2-5-8-0"
       id="linearGradient4100"
       y2="43"
       x2="23.99999"
       y1="4.999989"
       x1="23.99999" />
    <radialGradient
       cx="99.157013"
       cy="186.17059"
       r="62.769119"
       fx="99.157013"
       fy="186.17059"
       id="radialGradient3018-7"
       xlink:href="#linearGradient23419"
       gradientUnits="userSpaceOnUse"
       gradientTransform="matrix(0.18029682,0,0,0.05942685,-1.8776934,16.207162)" />
    <linearGradient
       y2="208"
       x2="252"
       y1="152"
       x1="196"
       gradientTransform="matrix(0.49152541,0,0,0.47542369,-93.85593,-70.051269)"
       gradientUnits="userSpaceOnUse"
       id="linearGradient8444-5"
       xlink:href="#linearGradient4140" />
    <linearGradient
       y2="210"
       x2="368"
       y1="98"
       x1="304"
       gradientTransform="matrix(0.27808187,0,0,0.28749999,-108.96049,-60.274968)"
       gradientUnits="userSpaceOnUse"
       id="linearGradient8452-6"
       xlink:href="#linearGradient4251" />
    <linearGradient
       x1="23.99999"
       y1="4.999989"
       x2="23.99999"
       y2="43"
       id="linearGradient3223"
       xlink:href="#linearGradient3924-2-2-5-8-0"
       gradientUnits="userSpaceOnUse"
       gradientTransform="matrix(0.67567568,0,0,0.64864865,-0.21621703,0.93244198)" />
    <radialGradient
       cx="4.9929786"
       cy="43.5"
       r="2.5"
       fx="4.9929786"
       fy="43.5"
       id="radialGradient4002"
       xlink:href="#linearGradient3688-166-749-4-0-3-8-1"
       gradientUnits="userSpaceOnUse"
       gradientTransform="matrix(2.003784,0,0,1.4,27.98813,-17.4)" />
    <radialGradient
       cx="4.9929786"
       cy="43.5"
       r="2.5"
       fx="4.9929786"
       fy="43.5"
       id="radialGradient4004"
       xlink:href="#linearGradient3688-166-749-4-0-3-8-1"
       gradientUnits="userSpaceOnUse"
       gradientTransform="matrix(2.003784,0,0,1.4,-20.01187,-104.4)" />
    <linearGradient
       x1="23.954144"
       y1="15.999304"
       x2="23.954144"
       y2="19.963179"
       id="linearGradient4056"
       xlink:href="#linearGradient23419"
       gradientUnits="userSpaceOnUse"
       gradientTransform="matrix(0.69999998,0,0,0.26923077,-0.80000019,5.6153856)" />
    <linearGradient
       x1="25.132275"
       y1="15.499894"
       x2="25.132275"
       y2="48.395687"
       id="linearGradient4059-1"
       xlink:href="#linearGradient4658"
       gradientUnits="userSpaceOnUse"
       gradientTransform="matrix(0.56307783,0,0,0.53992403,2.4861325,2.5707699)" />
    <linearGradient
       x1="24.169817"
       y1="-12.24244"
       x2="24.169817"
       y2="48.933952"
       id="linearGradient4052-7"
       xlink:href="#linearGradient3242-7-3-8-0-4-58-06"
       gradientUnits="userSpaceOnUse"
       gradientTransform="matrix(0.45454545,0,0,0.45454545,0.454544,1.454547)" />
    <linearGradient
       x1="23.99999"
       y1="4.999989"
       x2="23.99999"
       y2="43"
       id="linearGradient4307"
       xlink:href="#linearGradient3924-2-2-5-8-0"
       gradientUnits="userSpaceOnUse"
       gradientTransform="matrix(0.62162164,0,0,0.62162164,0.0810794,1.0810903)" />
    <filter
       inkscape:collect="always"
       style="color-interpolation-filters:sRGB"
       id="filter1069"
       x="-0.032946328"
       width="1.0658927"
       y="-0.33546502"
       height="1.67093">
      <feGaussianBlur
         inkscape:collect="always"
         stdDeviation="0.4217537"
         id="feGaussianBlur1071" />
    </filter>
    <linearGradient
       inkscape:collect="always"
       xlink:href="#linearGradient3600-9"
       id="linearGradient971"
       x1="65"
       y1="8"
       x2="65"
       y2="118"
       gradientUnits="userSpaceOnUse" />
  </defs>
  <metadata
     id="metadata7">
    <rdf:RDF>
      <cc:Work
         rdf:about="">
        <dc:format>image/svg+xml</dc:format>
        <dc:type
           rdf:resource="http://purl.org/dc/dcmitype/StillImage" />
        <dc:title />
      </cc:Work>
    </rdf:RDF>
  </metadata>
  <ellipse
     transform="matrix(2.8175916,0,0,2.0812371,-4.3523074,26.300489)"
     ry="1.5086653"
     rx="15.361483"
     cy="44.479126"
     cx="24.373692"
     id="path1059"
     style="opacity:0.14800002;fill:#000000;fill-opacity:1;stroke:none;stroke-width:0.40579584;stroke-linecap:round;stroke-linejoin:round;stroke-opacity:0.36315792;filter:url(#filter1069)" />
  <ellipse
     cy="62.665749"
     cx="63.269897"
     id="path886"
     style="fill:url(#linearGradient971);fill-opacity:1;stroke:#000000;stroke-width:1.00000012;stroke-miterlimit:4;stroke-dasharray:none;stroke-opacity:0.36315792"
     rx="57.760628"
     ry="55.330612" />
  <g
     aria-label="khronos"
     style="font-style:normal;font-variant:normal;font-weight:normal;font-stretch:normal;font-size:10.66666698px;line-height:1.25;font-family:'Redacted Script';-inkscape-font-specification:'Redacted Script';letter-spacing:0px;word-spacing:0px;fill:#7e8087;fill-opacity:1;stroke:none;stroke-width:0.57685632"
     id="text975"
     transform="matrix(1.6154415,0,0,1.8602592,232.17054,-43.322782)">
    <path
       d="m -112.568,52.690667 q -0.128,0 -0.21333,-0.07467 -0.17067,-0.138667 -0.096,-0.352 0,-0.01067 0.0747,-0.256 0.0853,-0.245333 0.192,-0.554667 0.0533,-0.181333 0.096,-0.309333 0.0427,-0.138667 0.0747,-0.245333 -0.224,0.08533 -0.512,0.192 -0.288,0.106666 -0.61867,0.234666 -0.32,0.117334 -0.66133,0.245334 -0.34133,0.128 -0.66133,0.245333 -0.11734,0.04267 -0.23467,-0.01067 -0.128,-0.064 -0.18133,-0.192 -0.0427,-0.117333 0.0213,-0.234666 0.0533,-0.128 0.18133,-0.181334 0.48,-0.170666 0.992,-0.362666 0.52267,-0.192 0.94934,-0.352 0.42666,-0.16 0.704,-0.266667 0.288,-0.106667 0.288,-0.106667 0.0533,-0.01067 0.096,-0.01067 0.0533,-0.01067 0.10666,0.01067 0.14934,0.02133 0.21334,0.170667 0.0533,0.08533 0.0427,0.224 0,0.128 -0.0533,0.373333 -0.032,0.138667 -0.0853,0.309334 -0.0427,0.16 -0.11734,0.373333 -0.0107,0.04267 -0.0213,0.07467 -0.0107,0.032 -0.0213,0.07467 0.42666,-0.234666 1.04533,-0.490666 0.11733,-0.05333 0.23467,0 0.11733,0.04267 0.17066,0.16 0.064,0.117333 0.0107,0.245333 -0.0533,0.128 -0.17067,0.181333 -0.36266,0.16 -0.672,0.309334 -0.30933,0.149333 -0.53333,0.266666 -0.26667,0.138667 -0.48,0.256 -0.064,0.05333 -0.16,0.05333 z"
       style="fill:#7e8087;stroke-width:0.57685632"
       id="path977"
       inkscape:connector-curvature="0" />
    <path
       d="m -109.432,52.370667 q -0.0533,0 -0.0853,-0.01067 -0.17067,-0.04267 -0.24534,-0.128 -0.064,-0.096 -0.0853,-0.149333 -0.0853,-0.234667 0.0427,-0.48 0.13866,-0.256 0.34133,-0.533334 0.064,-0.08533 0.11733,-0.181333 0.0533,-0.096 0.10667,-0.181333 0.0107,-0.01067 0.032,-0.04267 -0.064,0.02133 -0.16,0.064 -0.0853,0.04267 -0.20267,0.128 -0.192,0.117333 -0.40533,0.309333 -0.21333,0.181334 -0.43733,0.384 -0.0533,0.05333 -0.11734,0.106667 -0.0533,0.04267 -0.10666,0.096 -0.096,0.08533 -0.224,0.08533 -0.13867,-0.01067 -0.224,-0.117333 -0.096,-0.096 -0.0853,-0.224 0.0107,-0.138667 0.10667,-0.224 0.0533,-0.05333 0.11733,-0.096 0.0533,-0.05333 0.10667,-0.106667 0.256,-0.234666 0.50133,-0.437333 0.256,-0.213333 0.49067,-0.362667 0.24533,-0.149333 0.48,-0.213333 0.24533,-0.07467 0.46933,-0.01067 0.18134,0.05333 0.256,0.149334 0.0747,0.096 0.096,0.170666 0.096,0.245334 -0.0427,0.501334 -0.13867,0.256 -0.352,0.565333 -0.0213,0.02133 -0.0533,0.07467 -0.0213,0.04267 -0.0533,0.08533 0.16,-0.064 0.40533,-0.149333 0.256,-0.096 0.62934,-0.245334 0.13866,-0.04267 0.256,0.02133 0.11733,0.05333 0.16,0.181333 0.0533,0.117333 -0.0107,0.245333 -0.0533,0.117334 -0.17067,0.170667 -0.34133,0.117333 -0.61866,0.213333 -0.27734,0.096 -0.46934,0.170667 -0.10666,0.04267 -0.192,0.07467 -0.0747,0.02133 -0.13866,0.04267 -0.0853,0.02133 -0.13867,0.04267 -0.0427,0.01067 -0.096,0.01067 z"
       style="fill:#7e8087;stroke-width:0.57685632"
       id="path979"
       inkscape:connector-curvature="0" />
    <path
       d="m -104.17334,52.584 q -0.0747,0 -0.13866,-0.02133 -0.20267,-0.04267 -0.288,-0.245334 -0.064,-0.181333 0.032,-0.405333 0.096,-0.224 0.27733,-0.501333 0.064,-0.096 0.11733,-0.192 0.064,-0.106667 0.10667,-0.192 0.032,-0.04267 0.0533,-0.106667 -0.32,-0.05333 -0.74666,-0.02133 -0.416,0.02133 -0.93867,0.16 -0.46933,0.117333 -0.992,0.309333 -0.52267,0.181333 -1.10933,0.437333 -0.11734,0.05333 -0.23467,0.01067 -0.11733,-0.05333 -0.17067,-0.170667 -0.064,-0.117333 -0.0107,-0.245333 0.0533,-0.128 0.17066,-0.181333 0.608,-0.266667 1.14134,-0.458667 0.544,-0.202667 1.04533,-0.32 1.312,-0.330667 2.144,-0.106667 0.24533,0.064 0.34133,0.298667 0.096,0.245333 -0.0427,0.533333 -0.13867,0.277334 -0.33067,0.586667 -0.0213,0.02133 -0.0427,0.05333 -0.0107,0.032 -0.032,0.07467 0.24534,-0.05333 0.71467,-0.213333 0.48,-0.16 1.33333,-0.469334 0.11734,-0.04267 0.23467,0.02133 0.128,0.05333 0.17067,0.181333 0.0533,0.117333 0,0.245333 -0.0533,0.117334 -0.192,0.170667 -0.49067,0.170667 -0.896,0.309333 -0.40534,0.138667 -0.72534,0.234667 -0.43733,0.128 -0.66133,0.181333 -0.21333,0.04267 -0.33067,0.04267 z"
       style="fill:#7e8087;stroke-width:0.57685632"
       id="path981"
       inkscape:connector-curvature="0" />
    <path
       d="m -99.202684,52.690667 q -0.128,0 -0.213333,-0.07467 -0.170667,-0.138667 -0.096,-0.352 0,-0.01067 0.07467,-0.256 0.08533,-0.245333 0.192,-0.554667 0.05333,-0.181333 0.096,-0.309333 0.04267,-0.138667 0.07467,-0.245333 -0.224,0.08533 -0.512,0.192 -0.288,0.106666 -0.618663,0.234666 -0.32,0.117334 -0.66133,0.245334 -0.34134,0.128 -0.66134,0.245333 -0.11733,0.04267 -0.23466,-0.01067 -0.128,-0.064 -0.18134,-0.192 -0.0427,-0.117333 0.0213,-0.234666 0.0533,-0.128 0.18133,-0.181334 0.48,-0.170666 0.992,-0.362666 0.52267,-0.192 0.94933,-0.352 0.426667,-0.16 0.704,-0.266667 0.288,-0.106667 0.288,-0.106667 0.05333,-0.01067 0.096,-0.01067 0.05333,-0.01067 0.106667,0.01067 0.149333,0.02133 0.213333,0.170667 0.05333,0.08533 0.04267,0.224 0,0.128 -0.05333,0.373333 -0.032,0.138667 -0.08533,0.309334 -0.04267,0.16 -0.117333,0.373333 -0.01067,0.04267 -0.02133,0.07467 -0.01067,0.032 -0.02133,0.07467 0.426667,-0.234666 1.045334,-0.490666 0.117333,-0.05333 0.234666,0 0.117334,0.04267 0.170667,0.16 0.064,0.117333 0.01067,0.245333 -0.05333,0.128 -0.170667,0.181333 -0.362667,0.16 -0.672,0.309334 -0.309334,0.149333 -0.533334,0.266666 -0.266666,0.138667 -0.48,0.256 -0.064,0.05333 -0.16,0.05333 z"
       style="fill:#7e8087;stroke-width:0.57685632"
       id="path983"
       inkscape:connector-curvature="0" />
    <path
       d="m -95.053351,52.690667 q -0.128,0 -0.213334,-0.07467 -0.170667,-0.138667 -0.096,-0.352 0,-0.01067 0.07467,-0.256 0.08533,-0.245333 0.192,-0.554667 0.05333,-0.181333 0.096,-0.309333 0.04267,-0.138667 0.07467,-0.245333 -0.224,0.08533 -0.512001,0.192 -0.288,0.106666 -0.618666,0.234666 -0.32,0.117334 -0.661334,0.245334 -0.341333,0.128 -0.661333,0.245333 -0.117333,0.04267 -0.234667,-0.01067 -0.128,-0.064 -0.181333,-0.192 -0.04267,-0.117333 0.02133,-0.234666 0.05333,-0.128 0.181334,-0.181334 0.48,-0.170666 0.992,-0.362666 0.522666,-0.192 0.949333,-0.352 0.426667,-0.16 0.704,-0.266667 0.288,-0.106667 0.288,-0.106667 0.05333,-0.01067 0.096,-0.01067 0.05333,-0.01067 0.106667,0.01067 0.149333,0.02133 0.213333,0.170667 0.05333,0.08533 0.04267,0.224 0,0.128 -0.05333,0.373333 -0.032,0.138667 -0.08533,0.309334 -0.04267,0.16 -0.117333,0.373333 -0.01067,0.04267 -0.02133,0.07467 -0.01067,0.032 -0.02133,0.07467 0.426667,-0.234666 1.045334,-0.490666 0.117333,-0.05333 0.234666,0 0.117334,0.04267 0.170667,0.16 0.064,0.117333 0.01067,0.245333 -0.05333,0.128 -0.170667,0.181333 -0.362667,0.16 -0.672,0.309334 -0.309333,0.149333 -0.533333,0.266666 -0.266667,0.138667 -0.48,0.256 -0.064,0.05333 -0.16,0.05333 z"
       style="fill:#7e8087;stroke-width:0.57685632"
       id="path985"
       inkscape:connector-curvature="0" />
    <path
       d="m -90.904018,52.690667 q -0.128,0 -0.213333,-0.07467 -0.170667,-0.138667 -0.096,-0.352 0,-0.01067 0.07467,-0.256 0.08533,-0.245333 0.192,-0.554667 0.05333,-0.181333 0.096,-0.309333 0.04267,-0.138667 0.07467,-0.245333 -0.224,0.08533 -0.512,0.192 -0.288,0.106666 -0.618666,0.234666 -0.32,0.117334 -0.661334,0.245334 -0.341333,0.128 -0.661333,0.245333 -0.117333,0.04267 -0.234667,-0.01067 -0.128,-0.064 -0.181333,-0.192 -0.04267,-0.117333 0.02133,-0.234666 0.05333,-0.128 0.181334,-0.181334 0.48,-0.170666 0.992,-0.362666 0.522666,-0.192 0.949333,-0.352 0.426667,-0.16 0.704,-0.266667 0.288,-0.106667 0.288,-0.106667 0.05333,-0.01067 0.096,-0.01067 0.05333,-0.01067 0.106667,0.01067 0.149333,0.02133 0.213333,0.170667 0.05333,0.08533 0.04267,0.224 0,0.128 -0.05333,0.373333 -0.032,0.138667 -0.08533,0.309334 -0.04267,0.16 -0.117333,0.373333 -0.01067,0.04267 -0.02133,0.07467 -0.01067,0.032 -0.02133,0.07467 0.426667,-0.234666 1.045334,-0.490666 0.117333,-0.05333 0.234666,0 0.117334,0.04267 0.170667,0.16 0.064,0.117333 0.01067,0.245333 -0.05333,0.128 -0.170667,0.181333 -0.362667,0.16 -0.672,0.309334 -0.309334,0.149333 -0.533334,0.266666 -0.266666,0.138667 -0.48,0.256 -0.064,0.05333 -0.16,0.05333 z"
       style="fill:#7e8087;stroke-width:0.57685632"
       id="path987"
       inkscape:connector-curvature="0" />
    <path
       d="m -85.442685,52.584 q -0.07467,0 -0.138667,-0.02133 -0.202667,-0.04267 -0.288,-0.245334 -0.064,-0.181333 0.032,-0.405333 0.096,-0.224 0.277333,-0.501333 0.064,-0.096 0.117334,-0.192 0.064,-0.106667 0.106666,-0.192 0.032,-0.04267 0.05333,-0.106667 -0.32,-0.05333 -0.746667,-0.02133 -0.416,0.02133 -0.938667,0.16 -0.469333,0.117333 -0.992,0.309333 -0.522667,0.181333 -1.109333,0.437333 -0.117334,0.05333 -0.234667,0.01067 -0.117333,-0.05333 -0.170667,-0.170667 -0.064,-0.117333 -0.01067,-0.245333 0.05333,-0.128 0.170666,-0.181333 0.608,-0.266667 1.141334,-0.458667 0.544,-0.202667 1.045333,-0.32 1.312,-0.330667 2.144,-0.106667 0.245334,0.064 0.341334,0.298667 0.096,0.245333 -0.04267,0.533333 -0.138667,0.277334 -0.330667,0.586667 -0.02133,0.02133 -0.04267,0.05333 -0.01067,0.032 -0.032,0.07467 0.245333,-0.05333 0.714666,-0.213333 0.48,-0.16 1.333334,-0.469334 0.117333,-0.04267 0.234666,0.02133 0.128,0.05333 0.170667,0.181333 0.05333,0.117333 0,0.245333 -0.05333,0.117334 -0.192,0.170667 -0.490667,0.170667 -0.896,0.309333 -0.405333,0.138667 -0.725333,0.234667 -0.437334,0.128 -0.661334,0.181333 -0.213333,0.04267 -0.330666,0.04267 z"
       style="fill:#7e8087;stroke-width:0.57685632"
       id="path989"
       inkscape:connector-curvature="0" />
  </g>
  <path
     inkscape:connector-curvature="0"
     style="color:#000000;font-style:normal;font-variant:normal;font-weight:normal;font-stretch:normal;font-size:medium;line-height:normal;font-family:sans-serif;font-variant-ligatures:normal;font-variant-position:normal;font-variant-caps:normal;font-variant-numeric:normal;font-variant-alternates:normal;font-feature-settings:normal;text-indent:0;text-align:start;text-decoration:none;text-decoration-line:none;text-decoration-style:solid;text-decoration-color:#000000;letter-spacing:normal;word-spacing:normal;text-transform:none;writing-mode:lr-tb;direction:ltr;text-orientation:mixed;dominant-baseline:auto;baseline-shift:baseline;text-anchor:start;white-space:normal;shape-padding:0;clip-rule:nonzero;display:inline;overflow:visible;visibility:visible;opacity:0.149;isolation:auto;mix-blend-mode:normal;color-interpolation:sRGB;color-interpolation-filters:linearRGB;solid-color:#000000;solid-opacity:1;vector-effect:none;fill:#000000;fill-opacity:1;fill-rule:nonzero;stroke:none;stroke-width:3;stroke-linecap:round;stroke-linejoin:round;stroke-miterlimit:4;stroke-dasharray:none;stroke-dashoffset:0;stroke-opacity:1;color-rendering:auto;image-rendering:auto;shape-rendering:auto;text-rendering:auto;enable-background:accumulate"
     d="m 26.638676,25.243191 a 1.50015,1.50015 0 0 0 -0.298828,0.0332 1.50015,1.50015 0 0 0 -0.285156,0.0918 1.50015,1.50015 0 0 0 -0.259766,0.146485 1.50015,1.50015 0 0 0 -0.621094,0.990233 1.50015,1.50015 0 0 0 -0.01563,0.150391 1.50015,1.50015 0 0 0 0.04102,0.445312 1.50015,1.50015 0 0 0 0.04297,0.144531 1.50015,1.50015 0 0 0 0.210937,0.394532 1.50015,1.50015 0 0 0 0.0957,0.115234 1.50015,1.50015 0 0 0 0.01367,0.01563 l 36.001953,37.236329 a 1.50015,1.50015 0 0 0 0.472656,0.318359 1.50015,1.50015 0 0 0 0.324219,0.355469 1.50015,1.50015 0 0 0 0.253906,0.160157 1.50015,1.50015 0 0 0 0.136719,0.06055 1.50015,1.50015 0 0 0 0.587891,0.09766 1.50015,1.50015 0 0 0 0.296875,-0.04102 1.50015,1.50015 0 0 0 0.144531,-0.04297 1.50015,1.50015 0 0 0 0.138672,-0.05664 1.50015,1.50015 0 0 0 0.386719,-0.261719 L 92.484379,38.606472 a 1.50015,1.50015 0 0 0 0.09961,-0.109374 1.50015,1.50015 0 0 0 0.31836,-0.671876 1.50015,1.50015 0 0 0 0.02148,-0.148437 1.50015,1.50015 0 0 0 0.0059,-0.148437 1.50015,1.50015 0 0 0 -0.0078,-0.150391 1.50015,1.50015 0 0 0 -0.02344,-0.148438 1.50015,1.50015 0 0 0 -0.08984,-0.285156 1.50015,1.50015 0 0 0 -0.238282,-0.380859 1.50015,1.50015 0 0 0 -0.216796,-0.207032 1.50015,1.50015 0 0 0 -0.121094,-0.08594 1.50015,1.50015 0 0 0 -0.558594,-0.212891 1.50015,1.50015 0 0 0 -0.298828,-0.01758 1.50015,1.50015 0 0 0 -0.148438,0.01172 1.50015,1.50015 0 0 0 -0.6875,0.28125 1.50015,1.50015 0 0 0 -0.115234,0.09375 1.50015,1.50015 0 0 0 -0.01563,0.01367 L 63.261723,62.446316 27.718754,25.684598 a 1.50015,1.50015 0 0 0 -0.109375,-0.09961 1.50015,1.50015 0 0 0 -0.25,-0.167969 1.50015,1.50015 0 0 0 -0.134766,-0.0625 1.50015,1.50015 0 0 0 -0.585937,-0.111328 z"
     id="path935-3" />
  <path
     style="color:#000000;font-style:normal;font-variant:normal;font-weight:normal;font-stretch:normal;font-size:medium;line-height:normal;font-family:sans-serif;font-variant-ligatures:normal;font-variant-position:normal;font-variant-caps:normal;font-variant-numeric:normal;font-variant-alternates:normal;font-feature-settings:normal;text-indent:0;text-align:start;text-decoration:none;text-decoration-line:none;text-decoration-style:solid;text-decoration-color:#000000;letter-spacing:normal;word-spacing:normal;text-transform:none;writing-mode:lr-tb;direction:ltr;text-orientation:mixed;dominant-baseline:auto;baseline-shift:baseline;text-anchor:start;white-space:normal;shape-padding:0;clip-rule:nonzero;display:inline;overflow:visible;visibility:visible;opacity:1;isolation:auto;mix-blend-mode:normal;color-interpolation:sRGB;color-interpolation-filters:linearRGB;solid-color:#000000;solid-opacity:1;vector-effect:none;fill:#273445;fill-opacity:1;fill-rule:nonzero;stroke:none;stroke-width:3;stroke-linecap:round;stroke-linejoin:round;stroke-miterlimit:4;stroke-dasharray:none;stroke-dashoffset:0;stroke-opacity:1;color-rendering:auto;image-rendering:auto;shape-rendering:auto;text-rendering:auto;enable-background:accumulate"
     d="M 26.638672 23.394531 A 1.50015 1.50015 0 0 0 26.339844 23.427734 A 1.50015 1.50015 0 0 0 26.054688 23.519531 A 1.50015 1.50015 0 0 0 25.794922 23.666016 A 1.50015 1.50015 0 0 0 25.173828 24.65625 A 1.50015 1.50015 0 0 0 25.158203 24.806641 A 1.50015 1.50015 0 0 0 25.199219 25.251953 A 1.50015 1.50015 0 0 0 25.242188 25.396484 A 1.50015 1.50015 0 0 0 25.453125 25.791016 A 1.50015 1.50015 0 0 0 25.548828 25.90625 A 1.50015 1.50015 0 0 0 25.5625 25.921875 L 61.564453 63.158203 A 1.50015 1.50015 0 0 0 62.037109 63.476562 A 1.50015 1.50015 0 0 0 62.361328 63.832031 A 1.50015 1.50015 0 0 0 62.615234 63.992188 A 1.50015 1.50015 0 0 0 62.751953 64.052734 A 1.50015 1.50015 0 0 0 63.339844 64.150391 A 1.50015 1.50015 0 0 0 63.636719 64.109375 A 1.50015 1.50015 0 0 0 63.78125 64.066406 A 1.50015 1.50015 0 0 0 63.919922 64.009766 A 1.50015 1.50015 0 0 0 64.306641 63.748047 L 92.484375 36.757812 A 1.50015 1.50015 0 0 0 92.583984 36.648438 A 1.50015 1.50015 0 0 0 92.902344 35.976562 A 1.50015 1.50015 0 0 0 92.923828 35.828125 A 1.50015 1.50015 0 0 0 92.929688 35.679688 A 1.50015 1.50015 0 0 0 92.921875 35.529297 A 1.50015 1.50015 0 0 0 92.898438 35.380859 A 1.50015 1.50015 0 0 0 92.808594 35.095703 A 1.50015 1.50015 0 0 0 92.570312 34.714844 A 1.50015 1.50015 0 0 0 92.353516 34.507812 A 1.50015 1.50015 0 0 0 92.232422 34.421875 A 1.50015 1.50015 0 0 0 91.673828 34.208984 A 1.50015 1.50015 0 0 0 91.375 34.191406 A 1.50015 1.50015 0 0 0 91.226562 34.203125 A 1.50015 1.50015 0 0 0 90.539062 34.484375 A 1.50015 1.50015 0 0 0 90.423828 34.578125 A 1.50015 1.50015 0 0 0 90.408203 34.591797 L 63.261719 60.597656 L 27.71875 23.835938 A 1.50015 1.50015 0 0 0 27.609375 23.736328 A 1.50015 1.50015 0 0 0 27.359375 23.568359 A 1.50015 1.50015 0 0 0 27.224609 23.505859 A 1.50015 1.50015 0 0 0 26.638672 23.394531 z "
     id="path935" />
  <ellipse
     ry="3.8301613"
     rx="3.8849931"
     cy="50.451874"
     cx="32.488132"
     id="path982"
     style="fill:#a56de2;fill-opacity:1;stroke:none;stroke-width:1.00000012;stroke-linecap:round;stroke-linejoin:round;stroke-miterlimit:4;stroke-dasharray:none;stroke-opacity:0.18947371" />
  <ellipse
     ry="3.8301613"
     rx="3.8849931"
     cy="90.210052"
     cx="32.488132"
     id="path984"
     style="fill:#a56de2;fill-opacity:1;stroke:none;stroke-width:1.00000012;stroke-linecap:round;stroke-linejoin:round;stroke-miterlimit:4;stroke-dasharray:none;stroke-opacity:0.18947371" />
  <ellipse
     ry="3.8301613"
     rx="3.8849931"
     cy="70.910934"
     cx="32.488132"
     id="path982-5"
     style="fill:#a56de2;fill-opacity:1;stroke:none;stroke-width:1.00000012;stroke-linecap:round;stroke-linejoin:round;stroke-miterlimit:4;stroke-dasharray:none;stroke-opacity:0.18947371" />
  <g
     aria-label="khronos"
     style="font-style:normal;font-variant:normal;font-weight:normal;font-stretch:normal;font-size:10.66666698px;line-height:1.25;font-family:'Redacted Script';-inkscape-font-specification:'Redacted Script';letter-spacing:0px;word-spacing:0px;fill:#7e8087;fill-opacity:1;stroke:none;stroke-width:0.57685632"
     id="text975-6"
     transform="matrix(1.6154415,0,0,1.8602592,232.17054,-24.122929)">
    <path
       d="m -112.568,52.690667 q -0.128,0 -0.21333,-0.07467 -0.17067,-0.138667 -0.096,-0.352 0,-0.01067 0.0747,-0.256 0.0853,-0.245333 0.192,-0.554667 0.0533,-0.181333 0.096,-0.309333 0.0427,-0.138667 0.0747,-0.245333 -0.224,0.08533 -0.512,0.192 -0.288,0.106666 -0.61867,0.234666 -0.32,0.117334 -0.66133,0.245334 -0.34133,0.128 -0.66133,0.245333 -0.11734,0.04267 -0.23467,-0.01067 -0.128,-0.064 -0.18133,-0.192 -0.0427,-0.117333 0.0213,-0.234666 0.0533,-0.128 0.18133,-0.181334 0.48,-0.170666 0.992,-0.362666 0.52267,-0.192 0.94934,-0.352 0.42666,-0.16 0.704,-0.266667 0.288,-0.106667 0.288,-0.106667 0.0533,-0.01067 0.096,-0.01067 0.0533,-0.01067 0.10666,0.01067 0.14934,0.02133 0.21334,0.170667 0.0533,0.08533 0.0427,0.224 0,0.128 -0.0533,0.373333 -0.032,0.138667 -0.0853,0.309334 -0.0427,0.16 -0.11734,0.373333 -0.0107,0.04267 -0.0213,0.07467 -0.0107,0.032 -0.0213,0.07467 0.42666,-0.234666 1.04533,-0.490666 0.11733,-0.05333 0.23467,0 0.11733,0.04267 0.17066,0.16 0.064,0.117333 0.0107,0.245333 -0.0533,0.128 -0.17067,0.181333 -0.36266,0.16 -0.672,0.309334 -0.30933,0.149333 -0.53333,0.266666 -0.26667,0.138667 -0.48,0.256 -0.064,0.05333 -0.16,0.05333 z"
       style="fill:#7e8087;stroke-width:0.57685632"
       id="path977-7"
       inkscape:connector-curvature="0" />
    <path
       d="m -109.432,52.370667 q -0.0533,0 -0.0853,-0.01067 -0.17067,-0.04267 -0.24534,-0.128 -0.064,-0.096 -0.0853,-0.149333 -0.0853,-0.234667 0.0427,-0.48 0.13866,-0.256 0.34133,-0.533334 0.064,-0.08533 0.11733,-0.181333 0.0533,-0.096 0.10667,-0.181333 0.0107,-0.01067 0.032,-0.04267 -0.064,0.02133 -0.16,0.064 -0.0853,0.04267 -0.20267,0.128 -0.192,0.117333 -0.40533,0.309333 -0.21333,0.181334 -0.43733,0.384 -0.0533,0.05333 -0.11734,0.106667 -0.0533,0.04267 -0.10666,0.096 -0.096,0.08533 -0.224,0.08533 -0.13867,-0.01067 -0.224,-0.117333 -0.096,-0.096 -0.0853,-0.224 0.0107,-0.138667 0.10667,-0.224 0.0533,-0.05333 0.11733,-0.096 0.0533,-0.05333 0.10667,-0.106667 0.256,-0.234666 0.50133,-0.437333 0.256,-0.213333 0.49067,-0.362667 0.24533,-0.149333 0.48,-0.213333 0.24533,-0.07467 0.46933,-0.01067 0.18134,0.05333 0.256,0.149334 0.0747,0.096 0.096,0.170666 0.096,0.245334 -0.0427,0.501334 -0.13867,0.256 -0.352,0.565333 -0.0213,0.02133 -0.0533,0.07467 -0.0213,0.04267 -0.0533,0.08533 0.16,-0.064 0.40533,-0.149333 0.256,-0.096 0.62934,-0.245334 0.13866,-0.04267 0.256,0.02133 0.11733,0.05333 0.16,0.181333 0.0533,0.117333 -0.0107,0.245333 -0.0533,0.117334 -0.17067,0.170667 -0.34133,0.117333 -0.61866,0.213333 -0.27734,0.096 -0.46934,0.170667 -0.10666,0.04267 -0.192,0.07467 -0.0747,0.02133 -0.13866,0.04267 -0.0853,0.02133 -0.13867,0.04267 -0.0427,0.01067 -0.096,0.01067 z"
       style="fill:#7e8087;stroke-width:0.57685632"
       id="path979-5"
       inkscape:connector-curvature="0" />
    <path
       d="m -104.17334,52.584 q -0.0747,0 -0.13866,-0.02133 -0.20267,-0.04267 -0.288,-0.245334 -0.064,-0.181333 0.032,-0.405333 0.096,-0.224 0.27733,-0.501333 0.064,-0.096 0.11733,-0.192 0.064,-0.106667 0.10667,-0.192 0.032,-0.04267 0.0533,-0.106667 -0.32,-0.05333 -0.74666,-0.02133 -0.416,0.02133 -0.93867,0.16 -0.46933,0.117333 -0.992,0.309333 -0.52267,0.181333 -1.10933,0.437333 -0.11734,0.05333 -0.23467,0.01067 -0.11733,-0.05333 -0.17067,-0.170667 -0.064,-0.117333 -0.0107,-0.245333 0.0533,-0.128 0.17066,-0.181333 0.608,-0.266667 1.14134,-0.458667 0.544,-0.202667 1.04533,-0.32 1.312,-0.330667 2.144,-0.106667 0.24533,0.064 0.34133,0.298667 0.096,0.245333 -0.0427,0.533333 -0.13867,0.277334 -0.33067,0.586667 -0.0213,0.02133 -0.0427,0.05333 -0.0107,0.032 -0.032,0.07467 0.24534,-0.05333 0.71467,-0.213333 0.48,-0.16 1.33333,-0.469334 0.11734,-0.04267 0.23467,0.02133 0.128,0.05333 0.17067,0.181333 0.0533,0.117333 0,0.245333 -0.0533,0.117334 -0.192,0.170667 -0.49067,0.170667 -0.896,0.309333 -0.40534,0.138667 -0.72534,0.234667 -0.43733,0.128 -0.66133,0.181333 -0.21333,0.04267 -0.33067,0.04267 z"
       style="fill:#7e8087;stroke-width:0.57685632"
       id="path981-3"
       inkscape:connector-curvature="0" />
    <path
       d="m -99.202684,52.690667 q -0.128,0 -0.213333,-0.07467 -0.170667,-0.138667 -0.096,-0.352 0,-0.01067 0.07467,-0.256 0.08533,-0.245333 0.192,-0.554667 0.05333,-0.181333 0.096,-0.309333 0.04267,-0.138667 0.07467,-0.245333 -0.224,0.08533 -0.512,0.192 -0.288,0.106666 -0.618663,0.234666 -0.32,0.117334 -0.66133,0.245334 -0.34134,0.128 -0.66134,0.245333 -0.11733,0.04267 -0.23466,-0.01067 -0.128,-0.064 -0.18134,-0.192 -0.0427,-0.117333 0.0213,-0.234666 0.0533,-0.128 0.18133,-0.181334 0.48,-0.170666 0.992,-0.362666 0.52267,-0.192 0.94933,-0.352 0.426667,-0.16 0.704,-0.266667 0.288,-0.106667 0.288,-0.106667 0.05333,-0.01067 0.096,-0.01067 0.05333,-0.01067 0.106667,0.01067 0.149333,0.02133 0.213333,0.170667 0.05333,0.08533 0.04267,0.224 0,0.128 -0.05333,0.373333 -0.032,0.138667 -0.08533,0.309334 -0.04267,0.16 -0.117333,0.373333 -0.01067,0.04267 -0.02133,0.07467 -0.01067,0.032 -0.02133,0.07467 0.426667,-0.234666 1.045334,-0.490666 0.117333,-0.05333 0.234666,0 0.117334,0.04267 0.170667,0.16 0.064,0.117333 0.01067,0.245333 -0.05333,0.128 -0.170667,0.181333 -0.362667,0.16 -0.672,0.309334 -0.309334,0.149333 -0.533334,0.266666 -0.266666,0.138667 -0.48,0.256 -0.064,0.05333 -0.16,0.05333 z"
       style="fill:#7e8087;stroke-width:0.57685632"
       id="path983-5"
       inkscape:connector-curvature="0" />
    <path
       d="m -95.053351,52.690667 q -0.128,0 -0.213334,-0.07467 -0.170667,-0.138667 -0.096,-0.352 0,-0.01067 0.07467,-0.256 0.08533,-0.245333 0.192,-0.554667 0.05333,-0.181333 0.096,-0.309333 0.04267,-0.138667 0.07467,-0.245333 -0.224,0.08533 -0.512001,0.192 -0.288,0.106666 -0.618666,0.234666 -0.32,0.117334 -0.661334,0.245334 -0.341333,0.128 -0.661333,0.245333 -0.117333,0.04267 -0.234667,-0.01067 -0.128,-0.064 -0.181333,-0.192 -0.04267,-0.117333 0.02133,-0.234666 0.05333,-0.128 0.181334,-0.181334 0.48,-0.170666 0.992,-0.362666 0.522666,-0.192 0.949333,-0.352 0.426667,-0.16 0.704,-0.266667 0.288,-0.106667 0.288,-0.106667 0.05333,-0.01067 0.096,-0.01067 0.05333,-0.01067 0.106667,0.01067 0.149333,0.02133 0.213333,0.170667 0.05333,0.08533 0.04267,0.224 0,0.128 -0.05333,0.373333 -0.032,0.138667 -0.08533,0.309334 -0.04267,0.16 -0.117333,0.373333 -0.01067,0.04267 -0.02133,0.07467 -0.01067,0.032 -0.02133,0.07467 0.426667,-0.234666 1.045334,-0.490666 0.117333,-0.05333 0.234666,0 0.117334,0.04267 0.170667,0.16 0.064,0.117333 0.01067,0.245333 -0.05333,0.128 -0.170667,0.181333 -0.362667,0.16 -0.672,0.309334 -0.309333,0.149333 -0.533333,0.266666 -0.266667,0.138667 -0.48,0.256 -0.064,0.05333 -0.16,0.05333 z"
       style="fill:#7e8087;stroke-width:0.57685632"
       id="path985-6"
       inkscape:connector-curvature="0" />
    <path
       d="m -90.904018,52.690667 q -0.128,0 -0.213333,-0.07467 -0.170667,-0.138667 -0.096,-0.352 0,-0.01067 0.07467,-0.256 0.08533,-0.245333 0.192,-0.554667 0.05333,-0.181333 0.096,-0.309333 0.04267,-0.138667 0.07467,-0.245333 -0.224,0.08533 -0.512,0.192 -0.288,0.106666 -0.618666,0.234666 -0.32,0.117334 -0.661334,0.245334 -0.341333,0.128 -0.661333,0.245333 -0.117333,0.04267 -0.234667,-0.01067 -0.128,-0.064 -0.181333,-0.192 -0.04267,-0.117333 0.02133,-0.234666 0.05333,-0.128 0.181334,-0.181334 0.48,-0.170666 0.992,-0.362666 0.522666,-0.192 0.949333,-0.352 0.426667,-0.16 0.704,-0.266667 0.288,-0.106667 0.288,-0.106667 0.05333,-0.01067 0.096,-0.01067 0.05333,-0.01067 0.106667,0.01067 0.149333,0.02133 0.213333,0.170667 0.05333,0.08533 0.04267,0.224 0,0.128 -0.05333,0.373333 -0.032,0.138667 -0.08533,0.309334 -0.04267,0.16 -0.117333,0.373333 -0.01067,0.04267 -0.02133,0.07467 -0.01067,0.032 -0.02133,0.07467 0.426667,-0.234666 1.045334,-0.490666 0.117333,-0.05333 0.234666,0 0.117334,0.04267 0.170667,0.16 0.064,0.117333 0.01067,0.245333 -0.05333,0.128 -0.170667,0.181333 -0.362667,0.16 -0.672,0.309334 -0.309334,0.149333 -0.533334,0.266666 -0.266666,0.138667 -0.48,0.256 -0.064,0.05333 -0.16,0.05333 z"
       style="fill:#7e8087;stroke-width:0.57685632"
       id="path987-2"
       inkscape:connector-curvature="0" />
    <path
       d="m -85.442685,52.584 q -0.07467,0 -0.138667,-0.02133 -0.202667,-0.04267 -0.288,-0.245334 -0.064,-0.181333 0.032,-0.405333 0.096,-0.224 0.277333,-0.501333 0.064,-0.096 0.117334,-0.192 0.064,-0.106667 0.106666,-0.192 0.032,-0.04267 0.05333,-0.106667 -0.32,-0.05333 -0.746667,-0.02133 -0.416,0.02133 -0.938667,0.16 -0.469333,0.117333 -0.992,0.309333 -0.522667,0.181333 -1.109333,0.437333 -0.117334,0.05333 -0.234667,0.01067 -0.117333,-0.05333 -0.170667,-0.170667 -0.064,-0.117333 -0.01067,-0.245333 0.05333,-0.128 0.170666,-0.181333 0.608,-0.266667 1.141334,-0.458667 0.544,-0.202667 1.045333,-0.32 1.312,-0.330667 2.144,-0.106667 0.245334,0.064 0.341334,0.298667 0.096,0.245333 -0.04267,0.533333 -0.138667,0.277334 -0.330667,0.586667 -0.02133,0.02133 -0.04267,0.05333 -0.01067,0.032 -0.032,0.07467 0.245333,-0.05333 0.714666,-0.213333 0.48,-0.16 1.333334,-0.469334 0.117333,-0.04267 0.234666,0.02133 0.128,0.05333 0.170667,0.181333 0.05333,0.117333 0,0.245333 -0.05333,0.117334 -0.192,0.170667 -0.490667,0.170667 -0.896,0.309333 -0.405333,0.138667 -0.725333,0.234667 -0.437334,0.128 -0.661334,0.181333 -0.213333,0.04267 -0.330666,0.04267 z"
       style="fill:#7e8087;stroke-width:0.57685632"
       id="path989-9"
       inkscape:connector-curvature="0" />
  </g>
  <g
     aria-label="khronos"
     style="font-style:normal;font-variant:normal;font-weight:normal;font-stretch:normal;font-size:10.66666698px;line-height:1.25;font-family:'Redacted Script';-inkscape-font-specification:'Redacted Script';letter-spacing:0px;word-spacing:0px;fill:#7e8087;fill-opacity:1;stroke:none;stroke-width:0.57685632"
     id="text975-1"
     transform="matrix(1.6154415,0,0,1.8602592,232.17054,-4.923075)">
    <path
       d="m -112.568,52.690667 q -0.128,0 -0.21333,-0.07467 -0.17067,-0.138667 -0.096,-0.352 0,-0.01067 0.0747,-0.256 0.0853,-0.245333 0.192,-0.554667 0.0533,-0.181333 0.096,-0.309333 0.0427,-0.138667 0.0747,-0.245333 -0.224,0.08533 -0.512,0.192 -0.288,0.106666 -0.61867,0.234666 -0.32,0.117334 -0.66133,0.245334 -0.34133,0.128 -0.66133,0.245333 -0.11734,0.04267 -0.23467,-0.01067 -0.128,-0.064 -0.18133,-0.192 -0.0427,-0.117333 0.0213,-0.234666 0.0533,-0.128 0.18133,-0.181334 0.48,-0.170666 0.992,-0.362666 0.52267,-0.192 0.94934,-0.352 0.42666,-0.16 0.704,-0.266667 0.288,-0.106667 0.288,-0.106667 0.0533,-0.01067 0.096,-0.01067 0.0533,-0.01067 0.10666,0.01067 0.14934,0.02133 0.21334,0.170667 0.0533,0.08533 0.0427,0.224 0,0.128 -0.0533,0.373333 -0.032,0.138667 -0.0853,0.309334 -0.0427,0.16 -0.11734,0.373333 -0.0107,0.04267 -0.0213,0.07467 -0.0107,0.032 -0.0213,0.07467 0.42666,-0.234666 1.04533,-0.490666 0.11733,-0.05333 0.23467,0 0.11733,0.04267 0.17066,0.16 0.064,0.117333 0.0107,0.245333 -0.0533,0.128 -0.17067,0.181333 -0.36266,0.16 -0.672,0.309334 -0.30933,0.149333 -0.53333,0.266666 -0.26667,0.138667 -0.48,0.256 -0.064,0.05333 -0.16,0.05333 z"
       style="fill:#7e8087;stroke-width:0.57685632"
       id="path977-2"
       inkscape:connector-curvature="0" />
    <path
       d="m -109.432,52.370667 q -0.0533,0 -0.0853,-0.01067 -0.17067,-0.04267 -0.24534,-0.128 -0.064,-0.096 -0.0853,-0.149333 -0.0853,-0.234667 0.0427,-0.48 0.13866,-0.256 0.34133,-0.533334 0.064,-0.08533 0.11733,-0.181333 0.0533,-0.096 0.10667,-0.181333 0.0107,-0.01067 0.032,-0.04267 -0.064,0.02133 -0.16,0.064 -0.0853,0.04267 -0.20267,0.128 -0.192,0.117333 -0.40533,0.309333 -0.21333,0.181334 -0.43733,0.384 -0.0533,0.05333 -0.11734,0.106667 -0.0533,0.04267 -0.10666,0.096 -0.096,0.08533 -0.224,0.08533 -0.13867,-0.01067 -0.224,-0.117333 -0.096,-0.096 -0.0853,-0.224 0.0107,-0.138667 0.10667,-0.224 0.0533,-0.05333 0.11733,-0.096 0.0533,-0.05333 0.10667,-0.106667 0.256,-0.234666 0.50133,-0.437333 0.256,-0.213333 0.49067,-0.362667 0.24533,-0.149333 0.48,-0.213333 0.24533,-0.07467 0.46933,-0.01067 0.18134,0.05333 0.256,0.149334 0.0747,0.096 0.096,0.170666 0.096,0.245334 -0.0427,0.501334 -0.13867,0.256 -0.352,0.565333 -0.0213,0.02133 -0.0533,0.07467 -0.0213,0.04267 -0.0533,0.08533 0.16,-0.064 0.40533,-0.149333 0.256,-0.096 0.62934,-0.245334 0.13866,-0.04267 0.256,0.02133 0.11733,0.05333 0.16,0.181333 0.0533,0.117333 -0.0107,0.245333 -0.0533,0.117334 -0.17067,0.170667 -0.34133,0.117333 -0.61866,0.213333 -0.27734,0.096 -0.46934,0.170667 -0.10666,0.04267 -0.192,0.07467 -0.0747,0.02133 -0.13866,0.04267 -0.0853,0.02133 -0.13867,0.04267 -0.0427,0.01067 -0.096,0.01067 z"
       style="fill:#7e8087;stroke-width:0.57685632"
       id="path979-7"
       inkscape:connector-curvature="0" />
    <path
       d="m -104.17334,52.584 q -0.0747,0 -0.13866,-0.02133 -0.20267,-0.04267 -0.288,-0.245334 -0.064,-0.181333 0.032,-0.405333 0.096,-0.224 0.27733,-0.501333 0.064,-0.096 0.11733,-0.192 0.064,-0.106667 0.10667,-0.192 0.032,-0.04267 0.0533,-0.106667 -0.32,-0.05333 -0.74666,-0.02133 -0.416,0.02133 -0.93867,0.16 -0.46933,0.117333 -0.992,0.309333 -0.52267,0.181333 -1.10933,0.437333 -0.11734,0.05333 -0.23467,0.01067 -0.11733,-0.05333 -0.17067,-0.170667 -0.064,-0.117333 -0.0107,-0.245333 0.0533,-0.128 0.17066,-0.181333 0.608,-0.266667 1.14134,-0.458667 0.544,-0.202667 1.04533,-0.32 1.312,-0.330667 2.144,-0.106667 0.24533,0.064 0.34133,0.298667 0.096,0.245333 -0.0427,0.533333 -0.13867,0.277334 -0.33067,0.586667 -0.0213,0.02133 -0.0427,0.05333 -0.0107,0.032 -0.032,0.07467 0.24534,-0.05333 0.71467,-0.213333 0.48,-0.16 1.33333,-0.469334 0.11734,-0.04267 0.23467,0.02133 0.128,0.05333 0.17067,0.181333 0.0533,0.117333 0,0.245333 -0.0533,0.117334 -0.192,0.170667 -0.49067,0.170667 -0.896,0.309333 -0.40534,0.138667 -0.72534,0.234667 -0.43733,0.128 -0.66133,0.181333 -0.21333,0.04267 -0.33067,0.04267 z"
       style="fill:#7e8087;stroke-width:0.57685632"
       id="path981-0"
       inkscape:connector-curvature="0" />
    <path
       d="m -99.202684,52.690667 q -0.128,0 -0.213333,-0.07467 -0.170667,-0.138667 -0.096,-0.352 0,-0.01067 0.07467,-0.256 0.08533,-0.245333 0.192,-0.554667 0.05333,-0.181333 0.096,-0.309333 0.04267,-0.138667 0.07467,-0.245333 -0.224,0.08533 -0.512,0.192 -0.288,0.106666 -0.618663,0.234666 -0.32,0.117334 -0.66133,0.245334 -0.34134,0.128 -0.66134,0.245333 -0.11733,0.04267 -0.23466,-0.01067 -0.128,-0.064 -0.18134,-0.192 -0.0427,-0.117333 0.0213,-0.234666 0.0533,-0.128 0.18133,-0.181334 0.48,-0.170666 0.992,-0.362666 0.52267,-0.192 0.94933,-0.352 0.426667,-0.16 0.704,-0.266667 0.288,-0.106667 0.288,-0.106667 0.05333,-0.01067 0.096,-0.01067 0.05333,-0.01067 0.106667,0.01067 0.149333,0.02133 0.213333,0.170667 0.05333,0.08533 0.04267,0.224 0,0.128 -0.05333,0.373333 -0.032,0.138667 -0.08533,0.309334 -0.04267,0.16 -0.117333,0.373333 -0.01067,0.04267 -0.02133,0.07467 -0.01067,0.032 -0.02133,0.07467 0.426667,-0.234666 1.045334,-0.490666 0.117333,-0.05333 0.234666,0 0.117334,0.04267 0.170667,0.16 0.064,0.117333 0.01067,0.245333 -0.05333,0.128 -0.170667,0.181333 -0.362667,0.16 -0.672,0.309334 -0.309334,0.149333 -0.533334,0.266666 -0.266666,0.138667 -0.48,0.256 -0.064,0.05333 -0.16,0.05333 z"
       style="fill:#7e8087;stroke-width:0.57685632"
       id="path983-9"
       inkscape:connector-curvature="0" />
    <path
       d="m -95.053351,52.690667 q -0.128,0 -0.213334,-0.07467 -0.170667,-0.138667 -0.096,-0.352 0,-0.01067 0.07467,-0.256 0.08533,-0.245333 0.192,-0.554667 0.05333,-0.181333 0.096,-0.309333 0.04267,-0.138667 0.07467,-0.245333 -0.224,0.08533 -0.512001,0.192 -0.288,0.106666 -0.618666,0.234666 -0.32,0.117334 -0.661334,0.245334 -0.341333,0.128 -0.661333,0.245333 -0.117333,0.04267 -0.234667,-0.01067 -0.128,-0.064 -0.181333,-0.192 -0.04267,-0.117333 0.02133,-0.234666 0.05333,-0.128 0.181334,-0.181334 0.48,-0.170666 0.992,-0.362666 0.522666,-0.192 0.949333,-0.352 0.426667,-0.16 0.704,-0.266667 0.288,-0.106667 0.288,-0.106667 0.05333,-0.01067 0.096,-0.01067 0.05333,-0.01067 0.106667,0.01067 0.149333,0.02133 0.213333,0.170667 0.05333,0.08533 0.04267,0.224 0,0.128 -0.05333,0.373333 -0.032,0.138667 -0.08533,0.309334 -0.04267,0.16 -0.117333,0.373333 -0.01067,0.04267 -0.02133,0.07467 -0.01067,0.032 -0.02133,0.07467 0.426667,-0.234666 1.045334,-0.490666 0.117333,-0.05333 0.234666,0 0.117334,0.04267 0.170667,0.16 0.064,0.117333 0.01067,0.245333 -0.05333,0.128 -0.170667,0.181333 -0.362667,0.16 -0.672,0.309334 -0.309333,0.149333 -0.533333,0.266666 -0.266667,0.138667 -0.48,0.256 -0.064,0.05333 -0.16,0.05333 z"
       style="fill:#7e8087;stroke-width:0.57685632"
       id="path985-3"
       inkscape:connector-curvature="0" />
    <path
       d="m -90.904018,52.690667 q -0.128,0 -0.213333,-0.07467 -0.170667,-0.138667 -0.096,-0.352 0,-0.01067 0.07467,-0.256 0.08533,-0.245333 0.192,-0.554667 0.05333,-0.181333 0.096,-0.309333 0.04267,-0.138667 0.07467,-0.245333 -0.224,0.08533 -0.512,0.192 -0.288,0.106666 -0.618666,0.234666 -0.32,0.117334 -0.661334,0.245334 -0.341333,0.128 -0.661333,0.245333 -0.117333,0.04267 -0.234667,-0.01067 -0.128,-0.064 -0.181333,-0.192 -0.04267,-0.117333 0.02133,-0.234666 0.05333,-0.128 0.181334,-0.181334 0.48,-0.170666 0.992,-0.362666 0.522666,-0.192 0.949333,-0.352 0.426667,-0.16 0.704,-0.266667 0.288,-0.106667 0.288,-0.106667 0.05333,-0.01067 0.096,-0.01067 0.05333,-0.01067 0.106667,0.01067 0.149333,0.02133 0.213333,0.170667 0.05333,0.08533 0.04267,0.224 0,0.128 -0.05333,0.373333 -0.032,0.138667 -0.08533,0.309334 -0.04267,0.16 -0.117333,0.373333 -0.01067,0.04267 -0.02133,0.07467 -0.01067,0.032 -0.02133,0.07467 0.426667,-0.234666 1.045334,-0.490666 0.117333,-0.05333 0.234666,0 0.117334,0.04267 0.170667,0.16 0.064,0.117333 0.01067,0.245333 -0.05333,0.128 -0.170667,0.181333 -0.362667,0.16 -0.672,0.309334 -0.309334,0.149333 -0.533334,0.266666 -0.266666,0.138667 -0.48,0.256 -0.064,0.05333 -0.16,0.05333 z"
       style="fill:#7e8087;stroke-width:0.57685632"
       id="path987-6"
       inkscape:connector-curvature="0" />
    <path
       d="m -85.442685,52.584 q -0.07467,0 -0.138667,-0.02133 -0.202667,-0.04267 -0.288,-0.245334 -0.064,-0.181333 0.032,-0.405333 0.096,-0.224 0.277333,-0.501333 0.064,-0.096 0.117334,-0.192 0.064,-0.106667 0.106666,-0.192 0.032,-0.04267 0.05333,-0.106667 -0.32,-0.05333 -0.746667,-0.02133 -0.416,0.02133 -0.938667,0.16 -0.469333,0.117333 -0.992,0.309333 -0.522667,0.181333 -1.109333,0.437333 -0.117334,0.05333 -0.234667,0.01067 -0.117333,-0.05333 -0.170667,-0.170667 -0.064,-0.117333 -0.01067,-0.245333 0.05333,-0.128 0.170666,-0.181333 0.608,-0.266667 1.141334,-0.458667 0.544,-0.202667 1.045333,-0.32 1.312,-0.330667 2.144,-0.106667 0.245334,0.064 0.341334,0.298667 0.096,0.245333 -0.04267,0.533333 -0.138667,0.277334 -0.330667,0.586667 -0.02133,0.02133 -0.04267,0.05333 -0.01067,0.032 -0.032,0.07467 0.245333,-0.05333 0.714666,-0.213333 0.48,-0.16 1.333334,-0.469334 0.117333,-0.04267 0.234666,0.02133 0.128,0.05333 0.170667,0.181333 0.05333,0.117333 0,0.245333 -0.05333,0.117334 -0.192,0.170667 -0.490667,0.170667 -0.896,0.309333 -0.405333,0.138667 -0.725333,0.234667 -0.437334,0.128 -0.661334,0.181333 -0.213333,0.04267 -0.330666,0.04267 z"
       style="fill:#7e8087;stroke-width:0.57685632"
       id="path989-0"
       inkscape:connector-curvature="0" />
  </g>
</svg>
