<?xml version="1.0" encoding="UTF-8" standalone="no"?>
<svg
   xmlns:dc="http://purl.org/dc/elements/1.1/"
   xmlns:cc="http://creativecommons.org/ns#"
   xmlns:rdf="http://www.w3.org/1999/02/22-rdf-syntax-ns#"
   xmlns:svg="http://www.w3.org/2000/svg"
   xmlns="http://www.w3.org/2000/svg"
   xmlns:xlink="http://www.w3.org/1999/xlink"
   xmlns:sodipodi="http://sodipodi.sourceforge.net/DTD/sodipodi-0.dtd"
   xmlns:inkscape="http://www.inkscape.org/namespaces/inkscape"
   width="32"
   height="32"
   viewBox="0 0 32 32"
   id="svg2"
   version="1.1"
   inkscape:version="0.92.5 (2060ec1f9f, 2020-04-08)"
   sodipodi:docname="com.github.lainsce.khronos.svg">
  <sodipodi:namedview
     pagecolor="#ffffff"
     bordercolor="#666666"
     borderopacity="1"
     objecttolerance="10"
     gridtolerance="10"
     guidetolerance="10"
     inkscape:pageopacity="0"
     inkscape:pageshadow="2"
     inkscape:window-width="2560"
     inkscape:window-height="964"
     id="namedview40"
     showgrid="true"
     inkscape:zoom="14.75"
     inkscape:cx="-2.7465544"
     inkscape:cy="10.756025"
     inkscape:window-x="0"
     inkscape:window-y="30"
     inkscape:window-maximized="1"
     inkscape:current-layer="svg2"
     showguides="true"
     inkscape:guide-bbox="true">
    <inkscape:grid
       type="xygrid"
       id="grid5031" />
    <sodipodi:guide
       position="34,31"
       orientation="0,1"
       id="guide5053"
       inkscape:locked="false" />
    <sodipodi:guide
       position="34,2"
       orientation="0,1"
       id="guide5055"
       inkscape:locked="false" />
    <sodipodi:guide
       position="34,16"
       orientation="0,1"
       id="guide5057"
       inkscape:locked="false" />
  </sodipodi:namedview>
  <defs
     id="defs4">
    <radialGradient
       gradientTransform="matrix(0.18029682,0,0,0.05942685,-1.8776934,16.207162)"
       gradientUnits="userSpaceOnUse"
       xlink:href="#linearGradient23419"
       id="radialGradient3018"
       fy="186.17059"
       fx="99.157013"
       r="62.769119"
       cy="186.17059"
       cx="99.157013" />
    <linearGradient
       id="linearGradient23419">
      <stop
         id="stop23421"
         style="stop-color:#000000;stop-opacity:1"
         offset="0" />
      <stop
         id="stop23423"
         style="stop-color:#000000;stop-opacity:0"
         offset="1" />
    </linearGradient>
    <linearGradient
       xlink:href="#linearGradient4140-3"
       id="linearGradient8444"
       gradientUnits="userSpaceOnUse"
       gradientTransform="matrix(0.49152541,0,0,0.47542369,-93.85593,-70.051269)"
       x1="196"
       y1="152"
       x2="252"
       y2="208" />
    <linearGradient
       id="linearGradient4140-3">
      <stop
         id="stop4142-6"
         offset="0"
         style="stop-color:#f9c440;stop-opacity:1" />
      <stop
         style="stop-color:#fff394;stop-opacity:1"
         offset="0.50190115"
         id="stop5784-7" />
      <stop
         id="stop4144-5"
         offset="1"
         style="stop-color:#f9c440;stop-opacity:1" />
    </linearGradient>
    <linearGradient
       xlink:href="#linearGradient4251-3"
       id="linearGradient8452"
       gradientUnits="userSpaceOnUse"
       gradientTransform="matrix(0.27808187,0,0,0.28749999,-108.96049,-60.274968)"
       x1="304"
       y1="98"
       x2="368"
       y2="210" />
    <linearGradient
       id="linearGradient4251-3">
      <stop
         id="stop4259-5"
         offset="0"
         style="stop-color:#cccccc;stop-opacity:1" />
      <stop
         style="stop-color:#f4f4f4;stop-opacity:1"
         offset="0.51999998"
         id="stop6460" />
      <stop
         style="stop-color:#c1c1c1;stop-opacity:1"
         offset="1"
         id="stop4183-6" />
    </linearGradient>
    <linearGradient
       id="linearGradient3924-0">
      <stop
         offset="0"
         style="stop-color:#ffffff;stop-opacity:1"
         id="stop3926-6" />
      <stop
         offset="0.06316455"
         style="stop-color:#ffffff;stop-opacity:0.23529412"
         id="stop3928-3" />
      <stop
         offset="0.95056331"
         style="stop-color:#ffffff;stop-opacity:0.15686275"
         id="stop3930-2" />
      <stop
         offset="1"
         style="stop-color:#ffffff;stop-opacity:0.39215687"
         id="stop3932-62" />
    </linearGradient>
    <linearGradient
       id="linearGradient3688-166-749-6">
      <stop
         offset="0"
         style="stop-color:#181818;stop-opacity:1"
         id="stop2883-8" />
      <stop
         offset="1"
         style="stop-color:#181818;stop-opacity:0"
         id="stop2885-3" />
    </linearGradient>
    <linearGradient
       id="linearGradient3702-501-757-3">
      <stop
         offset="0"
         style="stop-color:#181818;stop-opacity:0"
         id="stop2895-3" />
      <stop
         offset="0.5"
         style="stop-color:#181818;stop-opacity:1"
         id="stop2897-28" />
      <stop
         offset="1"
         style="stop-color:#181818;stop-opacity:0"
         id="stop2899-8" />
    </linearGradient>
    <linearGradient
       gradientTransform="matrix(0.67567568,0,0,0.64864865,-0.21621703,0.93244198)"
       gradientUnits="userSpaceOnUse"
       xlink:href="#linearGradient3924-0"
       id="linearGradient3223"
       y2="43"
       x2="23.99999"
       y1="4.999989"
       x1="23.99999" />
    <radialGradient
       gradientTransform="matrix(2.003784,0,0,1.4,27.98813,-17.4)"
       gradientUnits="userSpaceOnUse"
       xlink:href="#linearGradient3688-166-749-6"
       id="radialGradient4002"
       fy="43.5"
       fx="4.9929786"
       r="2.5"
       cy="43.5"
       cx="4.9929786" />
    <radialGradient
       gradientTransform="matrix(2.003784,0,0,1.4,-20.01187,-104.4)"
       gradientUnits="userSpaceOnUse"
       xlink:href="#linearGradient3688-166-749-6"
       id="radialGradient4004"
       fy="43.5"
       fx="4.9929786"
       r="2.5"
       cy="43.5"
       cx="4.9929786" />
    <linearGradient
       gradientUnits="userSpaceOnUse"
       xlink:href="#linearGradient3702-501-757-3"
       id="linearGradient4006"
       y2="39.999443"
       x2="25.058096"
       y1="47.027729"
       x1="25.058096" />
    <linearGradient
       gradientTransform="matrix(0.69999998,0,0,0.26923077,-0.80000019,5.6153856)"
       gradientUnits="userSpaceOnUse"
       xlink:href="#linearGradient23419"
       id="linearGradient4056"
       y2="19.963179"
       x2="23.954144"
       y1="15.999304"
       x1="23.954144" />
    <linearGradient
       gradientTransform="matrix(0.56307783,0,0,0.53992403,2.4861325,2.5707699)"
       gradientUnits="userSpaceOnUse"
       xlink:href="#linearGradient4658-9"
       id="linearGradient4059-1"
       y2="48.395687"
       x2="25.132275"
       y1="15.499894"
       x1="25.132275" />
    <linearGradient
       id="linearGradient4658-9">
      <stop
         offset="0"
         style="stop-color:#fafafa;stop-opacity:1"
         id="stop4660-8" />
      <stop
         offset="1"
         style="stop-color:#e2e1de;stop-opacity:1"
         id="stop4662-7" />
    </linearGradient>
    <linearGradient
       gradientTransform="matrix(0.45454545,0,0,0.45454545,0.454544,1.454547)"
       gradientUnits="userSpaceOnUse"
       xlink:href="#linearGradient3242-7-3-8-0-4-58-06-49"
       id="linearGradient4052-7"
       y2="48.933952"
       x2="24.169817"
       y1="-12.24244"
       x1="24.169817" />
    <linearGradient
       id="linearGradient3242-7-3-8-0-4-58-06-49">
      <stop
         offset="0"
         style="stop-color:#8cd5ff;stop-opacity:1"
         id="stop3244-5-8-5-6-4-3-8-1" />
      <stop
         offset="0.26238"
         style="stop-color:#64baff;stop-opacity:1"
         id="stop3246-9-5-1-5-3-0-7-44" />
      <stop
         offset="0.66093999"
         style="stop-color:#3689e6;stop-opacity:1"
         id="stop3248-7-2-0-7-5-35-9-5" />
      <stop
         offset="1"
         style="stop-color:#0d52bf;stop-opacity:1"
         id="stop3250-8-2-8-5-6-40-4-3" />
    </linearGradient>
    <linearGradient
       gradientTransform="matrix(0.62162164,0,0,0.62162164,0.0810794,1.0810903)"
       gradientUnits="userSpaceOnUse"
       xlink:href="#linearGradient3924-0"
       id="linearGradient4307"
       y2="43"
       x2="23.99999"
       y1="4.999989"
       x1="23.99999" />
    <linearGradient
       inkscape:collect="always"
       xlink:href="#linearGradient4658-9"
       id="linearGradient872"
       x1="16"
       y1="3"
       x2="16"
       y2="29"
       gradientUnits="userSpaceOnUse" />
  </defs>
  <metadata
     id="metadata7">
    <rdf:RDF>
      <cc:Work
         rdf:about="">
        <dc:format>image/svg+xml</dc:format>
        <dc:type
           rdf:resource="http://purl.org/dc/dcmitype/StillImage" />
        <dc:title />
      </cc:Work>
    </rdf:RDF>
  </metadata>
  <circle
     style="fill:url(#linearGradient872);fill-opacity:1;stroke:#000000;stroke-width:1.86666667;stroke-opacity:0.36315792"
     id="path886"
     cx="16"
     cy="16"
     r="13.066667" />
  <rect
     style="fill:#abacae;fill-opacity:1;stroke:none;stroke-width:2.11514258;stroke-opacity:0.18947371"
     id="rect929"
     width="13.000001"
     height="1.066251"
     x="11"
     y="13" />
  <path
     style="color:#000000;font-style:normal;font-variant:normal;font-weight:normal;font-stretch:normal;font-size:medium;line-height:normal;font-family:sans-serif;font-variant-ligatures:normal;font-variant-position:normal;font-variant-caps:normal;font-variant-numeric:normal;font-variant-alternates:normal;font-feature-settings:normal;text-indent:0;text-align:start;text-decoration:none;text-decoration-line:none;text-decoration-style:solid;text-decoration-color:#000000;letter-spacing:normal;word-spacing:normal;text-transform:none;writing-mode:lr-tb;direction:ltr;text-orientation:mixed;dominant-baseline:auto;baseline-shift:baseline;text-anchor:start;white-space:normal;shape-padding:0;clip-rule:nonzero;display:inline;overflow:visible;visibility:visible;opacity:0.11199999;isolation:auto;mix-blend-mode:normal;color-interpolation:sRGB;color-interpolation-filters:linearRGB;solid-color:#000000;solid-opacity:1;vector-effect:none;fill:#000000;fill-opacity:1;fill-rule:nonzero;stroke:none;stroke-width:1.86666667px;stroke-linecap:round;stroke-linejoin:round;stroke-miterlimit:4;stroke-dasharray:none;stroke-dashoffset:0;stroke-opacity:1;color-rendering:auto;image-rendering:auto;shape-rendering:auto;text-rendering:auto;enable-background:accumulate"
     d="M 8.515625 8.6855469 A 0.93342667 0.93342667 0 0 0 8.3300781 8.7089844 A 0.93342667 0.93342667 0 0 0 8.1542969 8.7695312 A 0.93342667 0.93342667 0 0 0 7.9941406 8.8632812 A 0.93342667 0.93342667 0 0 0 7.6191406 9.4863281 A 0.93342667 0.93342667 0 0 0 7.609375 9.5800781 A 0.93342667 0.93342667 0 0 0 7.640625 9.8574219 A 0.93342667 0.93342667 0 0 0 7.6679688 9.9453125 A 0.93342667 0.93342667 0 0 0 7.8046875 10.189453 A 0.93342667 0.93342667 0 0 0 7.8652344 10.259766 A 0.93342667 0.93342667 0 0 0 7.8730469 10.269531 L 15.339844 17.736328 A 0.93342667 0.93342667 0 0 0 15.652344 17.935547 A 0.93342667 0.93342667 0 0 0 15.923828 17.998047 A 0.93342667 0.93342667 0 0 0 15.96875 17.998047 A 0.93342667 0.93342667 0 0 0 16.041016 17.998047 A 0.93342667 0.93342667 0 0 0 16.0625 17.998047 A 0.93342667 0.93342667 0 0 0 16.111328 17.992188 A 0.93342667 0.93342667 0 0 0 16.15625 17.988281 A 0.93342667 0.93342667 0 0 0 16.503906 17.859375 A 0.93342667 0.93342667 0 0 0 16.660156 17.736328 L 24.126953 10.269531 A 0.93342667 0.93342667 0 0 0 24.242188 10.123047 A 0.93342667 0.93342667 0 0 0 24.328125 9.9570312 A 0.93342667 0.93342667 0 0 0 24.376953 9.7773438 A 0.93342667 0.93342667 0 0 0 24.388672 9.6855469 A 0.93342667 0.93342667 0 0 0 24.390625 9.5917969 A 0.93342667 0.93342667 0 0 0 24.367188 9.40625 A 0.93342667 0.93342667 0 0 0 24.263672 9.1484375 A 0.93342667 0.93342667 0 0 0 24.212891 9.0703125 A 0.93342667 0.93342667 0 0 0 24.154297 8.9960938 A 0.93342667 0.93342667 0 0 0 23.857422 8.7753906 A 0.93342667 0.93342667 0 0 0 23.589844 8.6953125 A 0.93342667 0.93342667 0 0 0 23.496094 8.6855469 A 0.93342667 0.93342667 0 0 0 23.21875 8.7167969 A 0.93342667 0.93342667 0 0 0 23.044922 8.78125 A 0.93342667 0.93342667 0 0 0 22.962891 8.8261719 A 0.93342667 0.93342667 0 0 0 22.886719 8.8808594 A 0.93342667 0.93342667 0 0 0 22.806641 8.9492188 L 16 15.755859 L 9.1933594 8.9492188 A 0.93342667 0.93342667 0 0 0 9.1230469 8.8867188 A 0.93342667 0.93342667 0 0 0 8.9667969 8.7871094 A 0.93342667 0.93342667 0 0 0 8.8808594 8.7480469 A 0.93342667 0.93342667 0 0 0 8.515625 8.6855469 z "
     id="path935-3" />
  <rect
     style="fill:#abacae;fill-opacity:1;stroke:none;stroke-width:2.89294648;stroke-opacity:0.18947371"
     id="rect931"
     width="12.636365"
     height="1"
     x="11"
     y="23" />
  <path
     style="fill:none;stroke:#273445;stroke-width:1.86666667px;stroke-linecap:round;stroke-linejoin:round;stroke-opacity:1"
     d="M 16,16 23.466666,8.533333 Z"
     id="path935"
     inkscape:connector-curvature="0" />
  <path
     style="fill:none;stroke:#273445;stroke-width:1.86666667px;stroke-linecap:round;stroke-linejoin:round;stroke-opacity:1"
     d="M 16,16 8.533333,8.533333 Z"
     id="path935-6"
     inkscape:connector-curvature="0" />
  <ellipse
     style="fill:#a56de2;fill-opacity:1;stroke:none;stroke-width:1.86666667;stroke-linecap:round;stroke-linejoin:round;stroke-opacity:0.18947371"
     id="path982"
     cx="9"
     cy="13"
     rx="0.99999994"
     ry="1" />
  <ellipse
     style="fill:#a56de2;fill-opacity:1;stroke:none;stroke-width:1.86666667;stroke-linecap:round;stroke-linejoin:round;stroke-opacity:0.18947371"
     id="path984"
     cx="9"
     cy="23"
     rx="0.99999994"
     ry="1" />
  <rect
     style="fill:#abacae;fill-opacity:1;stroke:none;stroke-width:2.84590411;stroke-opacity:0.18947371"
     id="rect931-3"
     width="13.000002"
     height="0.99999923"
     x="11.000001"
     y="18" />
  <ellipse
     style="fill:#a56de2;fill-opacity:1;stroke:none;stroke-width:1.86666667;stroke-linecap:round;stroke-linejoin:round;stroke-opacity:0.18947371"
     id="path982-5"
     cx="9"
     cy="18"
     rx="0.99999994"
     ry="1" />
</svg>
