<?xml version="1.0" encoding="UTF-8"?>
<svg height="16px" viewBox="0 0 16 16" width="16px" xmlns="http://www.w3.org/2000/svg" xmlns:xlink="http://www.w3.org/1999/xlink">
    <filter id="a" height="100%" width="100%" x="0%" y="0%">
        <feColorMatrix in="SourceGraphic" type="matrix" values="0 0 0 0 1 0 0 0 0 1 0 0 0 0 1 0 0 0 1 0"/>
    </filter>
    <mask id="b">
        <g filter="url(#a)">
            <rect fill-opacity="0.2" height="16" width="16"/>
        </g>
    </mask>
    <clipPath id="c">
        <rect height="152" width="192"/>
    </clipPath>
    <g clip-path="url(#c)" mask="url(#b)" transform="matrix(1 0 0 1 -168 -16)">
        <path d="m 98.035156 52.992188 c -0.296875 -0.011719 -0.578125 0.109374 -0.777344 0.328124 l -21.972656 23.667969 c -1.660156 -1.085937 -3.75 -1.28125 -5.582031 -0.523437 l -14.222656 -15.800782 c -0.402344 -0.460937 -0.992188 -0.710937 -1.601563 -0.683593 c -0.78125 0.039062 -1.464844 0.523437 -1.761718 1.246093 c -0.292969 0.71875 -0.144532 1.546876 0.386718 2.117188 l 14.21875 15.800781 c -0.890625 1.636719 -0.96875 3.597657 -0.210937 5.304688 c 0.503906 1.125 1.34375 2.066406 2.40625 2.699219 l -11.859375 30.492187 c -0.132813 0.335937 -0.078125 0.714844 0.144531 0.996094 c 0.226563 0.285156 0.585937 0.421875 0.941406 0.367187 c 0.355469 -0.058594 0.652344 -0.300781 0.78125 -0.636718 l 11.855469 -30.492188 c 1.230469 0.253906 2.507812 0.117188 3.65625 -0.390625 c 3.023438 -1.351563 4.382812 -4.898437 3.035156 -7.925781 c -0.195312 -0.425782 -0.4375 -0.832032 -0.726562 -1.203125 l 21.980468 -23.671875 c 0.273438 -0.285156 0.351563 -0.703125 0.203126 -1.070313 c -0.148438 -0.363281 -0.5 -0.609375 -0.894532 -0.621093 z m 0 0" fill-rule="evenodd"/>
    </g>
    <g fill="#666666">
        <path d="m 8 0 c -4.40625 0 -8 3.59375 -8 8 s 3.59375 8 8 8 s 8 -3.59375 8 -8 s -3.59375 -8 -8 -8 z m 0 2 c 3.324219 0 6 2.675781 6 6 c 0 0.339844 -0.035156 0.675781 -0.089844 1 h -7.910156 v 1 h 7.65625 c -0.824219 2.335938 -3.035156 4 -5.65625 4 c -3.324219 0 -6 -2.675781 -6 -6 s 2.675781 -6 6 -6 z m 0 0" fill-opacity="0.995918"/>
        <path d="m 6 11 h 6 v 1 h -6 z m 0 0"/>
        <path d="m 7.996094 8.003906 l 4.011718 -4.007812 z m 0 0"/>
        <path d="m 11.984375 3.5 c -0.039063 0 -0.078125 0.007812 -0.117187 0.019531 c -0.019532 0.003907 -0.039063 0.011719 -0.054688 0.015625 c -0.058594 0.027344 -0.113281 0.0625 -0.15625 0.105469 l -4.015625 4.007813 c -0.011719 0.015624 -0.023437 0.03125 -0.039063 0.046874 c -0.011718 0.015626 -0.019531 0.03125 -0.03125 0.046876 c -0.03125 0.054687 -0.050781 0.109374 -0.0625 0.167968 c -0.003906 0.019532 -0.007812 0.039063 -0.007812 0.058594 c -0.003906 0.058594 0.003906 0.121094 0.019531 0.179688 c 0.007813 0.015624 0.015625 0.035156 0.023438 0.050781 c 0.03125 0.074219 0.082031 0.140625 0.140625 0.1875 c 0.03125 0.027343 0.066406 0.046875 0.101562 0.0625 c 0.019532 0.011719 0.039063 0.015625 0.054688 0.023437 c 0.019531 0.007813 0.039062 0.011719 0.058594 0.015625 c 0.039062 0.007813 0.078124 0.011719 0.117187 0.011719 c 0.023437 -0.003906 0.042969 -0.003906 0.058594 -0.007812 c 0.042969 -0.003907 0.082031 -0.015626 0.117187 -0.03125 c 0.058594 -0.023438 0.109375 -0.058594 0.15625 -0.101563 l 4.011719 -4.007813 c 0.070313 -0.074218 0.117187 -0.164062 0.136719 -0.265624 c 0.007812 -0.058594 0.007812 -0.117188 0 -0.175782 c -0.007813 -0.039062 -0.019532 -0.078125 -0.039063 -0.113281 c -0.007812 -0.019531 -0.015625 -0.035156 -0.023437 -0.050781 c -0.011719 -0.019532 -0.023438 -0.035156 -0.035156 -0.050782 c -0.046876 -0.0625 -0.113282 -0.113281 -0.183594 -0.148437 c -0.035156 -0.015625 -0.074219 -0.03125 -0.113282 -0.039063 c -0.039062 -0.007812 -0.078124 -0.007812 -0.117187 -0.007812 z m 0 0"/>
        <path d="m 8.003906 8.003906 l -3.007812 -3.007812 z m 0 0"/>
        <path d="m 4.96875 4.5 c -0.019531 0 -0.039062 0.003906 -0.058594 0.007812 c -0.019531 0.003907 -0.039062 0.007813 -0.058594 0.011719 c -0.015624 0.007813 -0.035156 0.015625 -0.054687 0.023438 c -0.019531 0.007812 -0.035156 0.015625 -0.054687 0.027343 c -0.050782 0.03125 -0.09375 0.070313 -0.132813 0.117188 c -0.011719 0.015625 -0.023437 0.03125 -0.03125 0.046875 c -0.011719 0.015625 -0.023437 0.035156 -0.03125 0.054687 c -0.023437 0.050782 -0.039063 0.109376 -0.046875 0.171876 v 0.054687 c 0.003906 0.0625 0.015625 0.121094 0.039062 0.175781 c 0.007813 0.019532 0.015626 0.035156 0.027344 0.050782 c 0.019532 0.039062 0.042969 0.074218 0.074219 0.105468 l 3.011719 3.011719 c 0.015625 0.011719 0.027344 0.027344 0.046875 0.035156 c 0.03125 0.027344 0.0625 0.046875 0.101562 0.0625 c 0.203125 0.089844 0.445313 0.03125 0.589844 -0.144531 c 0.011719 -0.015625 0.023437 -0.03125 0.03125 -0.046875 c 0.011719 -0.015625 0.023437 -0.035156 0.03125 -0.054687 c 0.007813 -0.015626 0.015625 -0.035157 0.023437 -0.054688 c 0.003907 -0.015625 0.007813 -0.035156 0.015626 -0.054688 c 0 -0.019531 0.003906 -0.039062 0.007812 -0.0625 c 0 -0.015624 0 -0.035156 0 -0.054687 c 0 -0.023437 -0.003906 -0.042969 -0.007812 -0.0625 c 0 -0.019531 -0.007813 -0.039063 -0.011719 -0.054687 c -0.003907 -0.019532 -0.011719 -0.039063 -0.019531 -0.058594 c -0.007813 -0.019532 -0.015626 -0.035156 -0.023438 -0.050782 c -0.011719 -0.019531 -0.023438 -0.035156 -0.03125 -0.054687 c -0.015625 -0.015625 -0.027344 -0.027344 -0.039062 -0.042969 c -0.003907 -0.003906 -0.003907 -0.003906 -0.007813 -0.007812 l -3.011719 -3.011719 c -0.101562 -0.097656 -0.238281 -0.148437 -0.378906 -0.140625 z m 0 0"/>
        <path d="m 5 9.5 c 0 0.277344 -0.222656 0.5 -0.5 0.5 s -0.5 -0.222656 -0.5 -0.5 s 0.222656 -0.5 0.5 -0.5 s 0.5 0.222656 0.5 0.5 z m 0 0"/>
        <path d="m 5 11.5 c 0 0.277344 -0.222656 0.5 -0.5 0.5 s -0.5 -0.222656 -0.5 -0.5 s 0.222656 -0.5 0.5 -0.5 s 0.5 0.222656 0.5 0.5 z m 0 0"/>
    </g>
</svg>
