<?xml version="1.0" encoding="UTF-8"?>
<svg height="128px" viewBox="0 0 128 128" width="128px" xmlns="http://www.w3.org/2000/svg" xmlns:xlink="http://www.w3.org/1999/xlink">
    <filter id="a" height="100%" width="100%" x="0%" y="0%">
        <feColorMatrix in="SourceGraphic" type="matrix" values="0 0 0 0 1 0 0 0 0 1 0 0 0 0 1 0 0 0 1 0"/>
    </filter>
    <mask id="b">
        <g filter="url(#a)">
            <rect fill-opacity="0.2" height="128" width="128"/>
        </g>
    </mask>
    <clipPath id="c">
        <rect height="152" width="192"/>
    </clipPath>
    <path d="m 124 66 c 0 33.136719 -26.863281 60 -60 60 s -60 -26.863281 -60 -60 s 26.863281 -60 60 -60 s 60 26.863281 60 60 z m 0 0" fill="#d5d3cf"/>
    <path d="m 64 8 c 30.929688 0 56 25.070312 56 56 v 2 c 0 30.929688 -25.070312 56 -56 56 s -56 -25.070312 -56 -56 v -2 c 0 -30.929688 25.070312 -56 56 -56 z m 0 0" fill="#d5d3cf"/>
    <path d="m 124 64 c 0 33.136719 -26.863281 60 -60 60 s -60 -26.863281 -60 -60 s 26.863281 -60 60 -60 s 60 26.863281 60 60 z m 0 0" fill="#f6f5f4"/>
    <path d="m 48 82 h 53 v 4 h -53 z m 0 0" fill="#c0bfbc"/>
    <path d="m 48 98 h 53 v 4 h -53 z m 0 0" fill="#c0bfbc"/>
    <g clip-path="url(#c)" mask="url(#b)" transform="matrix(1 0 0 1 -8 -16)">
        <path d="m 98.035156 52.992188 c -0.296875 -0.011719 -0.578125 0.109374 -0.777344 0.328124 l -21.972656 23.667969 c -1.660156 -1.085937 -3.75 -1.28125 -5.582031 -0.523437 l -14.222656 -15.800782 c -0.402344 -0.460937 -0.992188 -0.710937 -1.601563 -0.683593 c -0.78125 0.039062 -1.464844 0.523437 -1.761718 1.246093 c -0.292969 0.71875 -0.144532 1.546876 0.386718 2.117188 l 14.21875 15.800781 c -0.890625 1.636719 -0.96875 3.597657 -0.210937 5.304688 c 0.503906 1.125 1.34375 2.066406 2.40625 2.699219 l -11.859375 30.492187 c -0.132813 0.335937 -0.078125 0.714844 0.144531 0.996094 c 0.226563 0.285156 0.585937 0.421875 0.941406 0.367187 c 0.355469 -0.058594 0.652344 -0.300781 0.78125 -0.636718 l 11.855469 -30.492188 c 1.230469 0.253906 2.507812 0.117188 3.65625 -0.390625 c 3.023438 -1.351563 4.382812 -4.898437 3.035156 -7.925781 c -0.195312 -0.425782 -0.4375 -0.832032 -0.726562 -1.203125 l 21.980468 -23.671875 c 0.273438 -0.285156 0.351563 -0.703125 0.203126 -1.070313 c -0.148438 -0.363281 -0.5 -0.609375 -0.894532 -0.621093 z m 0 0" fill-rule="evenodd"/>
    </g>
    <g fill="none" stroke-linecap="round">
        <path d="m 64 64 l -18 -20" stroke="#949390" stroke-width="4.00626"/>
        <path d="m 64 64 l 26 -28" stroke="#3d3846" stroke-width="2.00313"/>
        <path d="m 64 64 l -14 36" stroke="#c061cb" stroke-width="2.00313"/>
    </g>
    <path d="m 69.480469 61.554688 c 1.347656 3.027343 -0.011719 6.574218 -3.035157 7.925781 c -3.027343 1.347656 -6.574218 -0.011719 -7.925781 -3.035157 c -1.347656 -3.027343 0.011719 -6.574218 3.035157 -7.925781 c 3.027343 -1.347656 6.574218 0.011719 7.925781 3.035157 z m 0 0" fill="#d5d3cf"/>
    <path d="m 66.03125 64 c 0 1.105469 -0.894531 2.003906 -2.003906 2.003906 c -1.105469 0 -2 -0.898437 -2 -2.003906 s 0.894531 -2.003906 2 -2.003906 c 1.109375 0 2.003906 0.898437 2.003906 2.003906 z m 0 0" fill="#131c1a"/>
    <path d="m 66.027344 64 c 0 1.105469 -0.894532 2 -2 2 c -1.101563 0 -2 -0.894531 -2 -2 s 0.898437 -2 2 -2 c 1.105468 0 2 0.894531 2 2 z m 0 0" fill="#613583"/>
    <path d="m 40 84 c 0 2.210938 -1.789062 4 -4 4 s -4 -1.789062 -4 -4 s 1.789062 -4 4 -4 s 4 1.789062 4 4 z m 0 0" fill="#c0bfbc"/>
    <path d="m 40 100 c 0 2.210938 -1.789062 4 -4 4 s -4 -1.789062 -4 -4 s 1.789062 -4 4 -4 s 4 1.789062 4 4 z m 0 0" fill="#c0bfbc"/>
</svg>
