<?xml version="1.0" encoding="UTF-8" standalone="no"?>
<svg
   xmlns:dc="http://purl.org/dc/elements/1.1/"
   xmlns:cc="http://creativecommons.org/ns#"
   xmlns:rdf="http://www.w3.org/1999/02/22-rdf-syntax-ns#"
   xmlns:svg="http://www.w3.org/2000/svg"
   xmlns="http://www.w3.org/2000/svg"
   xmlns:xlink="http://www.w3.org/1999/xlink"
   xmlns:sodipodi="http://sodipodi.sourceforge.net/DTD/sodipodi-0.dtd"
   xmlns:inkscape="http://www.inkscape.org/namespaces/inkscape"
   width="64"
   height="64"
   viewBox="0 0 64 64"
   id="svg2"
   version="1.1"
   inkscape:version="0.92.5 (2060ec1f9f, 2020-04-08)"
   sodipodi:docname="com.github.lainsce.khronos.svg"
   inkscape:export-filename="/home/lainsce/Documenti/Projects/khronos/data/icon.png"
   inkscape:export-xdpi="96"
   inkscape:export-ydpi="96">
  <sodipodi:namedview
     pagecolor="#ffffff"
     bordercolor="#666666"
     borderopacity="1"
     objecttolerance="10"
     gridtolerance="10"
     guidetolerance="10"
     inkscape:pageopacity="0"
     inkscape:pageshadow="2"
     inkscape:window-width="2560"
     inkscape:window-height="964"
     id="namedview40"
     showgrid="true"
     inkscape:zoom="5.2149125"
     inkscape:cx="-125.4079"
     inkscape:cy="3.4205995"
     inkscape:window-x="0"
     inkscape:window-y="30"
     inkscape:window-maximized="1"
     inkscape:current-layer="svg2">
    <inkscape:grid
       type="xygrid"
       id="grid845" />
  </sodipodi:namedview>
  <defs
     id="defs4">
    <linearGradient
       id="linearGradient23419">
      <stop
         id="stop23421"
         style="stop-color:#000000;stop-opacity:1"
         offset="0" />
      <stop
         id="stop23423"
         style="stop-color:#000000;stop-opacity:0"
         offset="1" />
    </linearGradient>
    <linearGradient
       xlink:href="#linearGradient4806-2-9"
       id="linearGradient6927"
       gradientUnits="userSpaceOnUse"
       gradientTransform="matrix(1.7553612,0,0,1.7553612,-94.69513,-16.91647)"
       x1="71.204407"
       y1="15.369057"
       x2="71.204407"
       y2="40.495617" />
    <linearGradient
       id="linearGradient4806-2-9">
      <stop
         id="stop4808-4-6"
         style="stop-color:#ffffff;stop-opacity:1"
         offset="0" />
      <stop
         id="stop4810-0-9"
         style="stop-color:#ffffff;stop-opacity:0.23529412"
         offset="0.42447853" />
      <stop
         id="stop4812-8-7"
         style="stop-color:#ffffff;stop-opacity:0.15686275"
         offset="0.82089913" />
      <stop
         id="stop4814-0-7"
         style="stop-color:#ffffff;stop-opacity:0.39215687"
         offset="1" />
    </linearGradient>
    <linearGradient
       xlink:href="#linearGradient4806-2-9"
       id="linearGradient6923"
       gradientUnits="userSpaceOnUse"
       gradientTransform="matrix(1.9186506,0,0,-1.9186506,-106.48073,85.46685)"
       x1="71.204407"
       y1="15.369057"
       x2="71.204407"
       y2="40.495617" />
    <linearGradient
       xlink:href="#linearGradient4251"
       id="linearGradient6919"
       gradientUnits="userSpaceOnUse"
       gradientTransform="matrix(0.5625,0,0,0.5625,-221,-118.62498)"
       x1="304"
       y1="98"
       x2="368"
       y2="210" />
    <linearGradient
       id="linearGradient4251">
      <stop
         id="stop4259"
         offset="0"
         style="stop-color:#cccccc;stop-opacity:1" />
      <stop
         style="stop-color:#f4f4f4;stop-opacity:1"
         offset="0.51999998"
         id="stop6460" />
      <stop
         style="stop-color:#c1c1c1;stop-opacity:1"
         offset="1"
         id="stop4183" />
    </linearGradient>
    <linearGradient
       x1="71.204407"
       y1="15.369057"
       x2="71.204407"
       y2="40.495617"
       id="linearGradient3293"
       xlink:href="#linearGradient4806-2-9"
       gradientUnits="userSpaceOnUse"
       gradientTransform="matrix(2.3268746,0,0,2.3268746,-135.94475,-32.84278)" />
    <linearGradient
       xlink:href="#linearGradient4140"
       id="linearGradient6915"
       x1="196"
       y1="152"
       x2="252"
       y2="208"
       gradientUnits="userSpaceOnUse"
       gradientTransform="translate(-191.5,-148)" />
    <linearGradient
       id="linearGradient4140">
      <stop
         id="stop4142"
         offset="0"
         style="stop-color:#f9c440;stop-opacity:1" />
      <stop
         style="stop-color:#fff394;stop-opacity:1"
         offset="0.50190115"
         id="stop5784" />
      <stop
         id="stop4144"
         offset="1"
         style="stop-color:#f9c440;stop-opacity:1" />
    </linearGradient>
    <radialGradient
       xlink:href="#linearGradient23419"
       id="radialGradient3300-9"
       gradientUnits="userSpaceOnUse"
       gradientTransform="matrix(0.3823536,7.5555777e-8,-1.8372241e-8,0.1115198,-5.9254271,36.335849)"
       cx="99.189415"
       cy="185.29727"
       fx="99.189415"
       fy="185.29727"
       r="62.769119" />
    <radialGradient
       xlink:href="#linearGradient23419"
       id="radialGradient4192"
       gradientUnits="userSpaceOnUse"
       gradientTransform="matrix(0.2549024,5.3967361e-8,-1.2248161e-8,0.07965545,6.7163816,44.240666)"
       cx="99.189415"
       cy="185.29727"
       fx="99.189415"
       fy="185.29727"
       r="62.769119" />
    <linearGradient
       id="linearGradient4658">
      <stop
         offset="0"
         style="stop-color:#fafafa;stop-opacity:1;"
         id="stop4660" />
      <stop
         offset="1"
         style="stop-color:#e2e1de;stop-opacity:1;"
         id="stop4662" />
    </linearGradient>
    <radialGradient
       gradientTransform="matrix(2.003784,0,0,1.4,27.98813,-17.4)"
       gradientUnits="userSpaceOnUse"
       xlink:href="#linearGradient3688-166-749-4-0-3-8-1"
       id="radialGradient3337-2-2-8"
       fy="43.5"
       fx="4.9929786"
       r="2.5"
       cy="43.5"
       cx="4.9929786" />
    <linearGradient
       id="linearGradient3688-166-749-4-0-3-8-1">
      <stop
         offset="0"
         style="stop-color:#181818;stop-opacity:1"
         id="stop2883-4-0-1-8-1" />
      <stop
         offset="1"
         style="stop-color:#181818;stop-opacity:0"
         id="stop2885-9-2-9-6-6" />
    </linearGradient>
    <radialGradient
       gradientTransform="matrix(2.003784,0,0,1.4,-20.01187,-104.4)"
       gradientUnits="userSpaceOnUse"
       xlink:href="#linearGradient3688-166-749-4-0-3-8-1"
       id="radialGradient3339-1-4-96"
       fy="43.5"
       fx="4.9929786"
       r="2.5"
       cy="43.5"
       cx="4.9929786" />
    <linearGradient
       id="linearGradient3702-501-757-8-4-1-1-4">
      <stop
         offset="0"
         style="stop-color:#181818;stop-opacity:0"
         id="stop2895-8-9-9-1-7" />
      <stop
         offset="0.5"
         style="stop-color:#181818;stop-opacity:1"
         id="stop2897-7-8-7-7-6" />
      <stop
         offset="1"
         style="stop-color:#181818;stop-opacity:0"
         id="stop2899-4-5-1-5-0" />
    </linearGradient>
    <linearGradient
       gradientUnits="userSpaceOnUse"
       xlink:href="#linearGradient3702-501-757-8-4-1-1-4"
       id="linearGradient5515"
       y2="39.999443"
       x2="25.058096"
       y1="47.027729"
       x1="25.058096" />
    <linearGradient
       id="linearGradient3924-2-2-5-8-0">
      <stop
         id="stop3926-9-4-9-6-6"
         style="stop-color:#ffffff;stop-opacity:1"
         offset="0" />
      <stop
         id="stop3928-9-8-6-5-1"
         style="stop-color:#ffffff;stop-opacity:0.23529412"
         offset="0.06316455" />
      <stop
         id="stop3930-3-5-1-7-98"
         style="stop-color:#ffffff;stop-opacity:0.15686275"
         offset="0.95056331" />
      <stop
         id="stop3932-8-0-4-8-60"
         style="stop-color:#ffffff;stop-opacity:0.39215687"
         offset="1" />
    </linearGradient>
    <linearGradient
       y2="43"
       x2="23.99999"
       y1="4.999989"
       x1="23.99999"
       gradientTransform="matrix(1.4324324,0,0,1.4324324,-2.3783756,-1.8783739)"
       gradientUnits="userSpaceOnUse"
       id="linearGradient3681"
       xlink:href="#linearGradient3924-2-2-5-8-0" />
    <linearGradient
       y2="43"
       x2="23.99999"
       y1="4.999989"
       x1="23.99999"
       gradientTransform="matrix(1.4324324,0,0,1.4324324,-2.3783756,-1.8783738)"
       gradientUnits="userSpaceOnUse"
       id="linearGradient3681-6"
       xlink:href="#linearGradient3924-2-2-5-8-0" />
    <linearGradient
       id="linearGradient3242-7-3-8-0-4-58-06">
      <stop
         offset="0"
         style="stop-color:#8cd5ff;stop-opacity:1"
         id="stop3244-5-8-5-6-4-3-8" />
      <stop
         offset="0.26238"
         style="stop-color:#64baff;stop-opacity:1"
         id="stop3246-9-5-1-5-3-0-7" />
      <stop
         offset="0.66093999"
         style="stop-color:#3689e6;stop-opacity:1"
         id="stop3248-7-2-0-7-5-35-9" />
      <stop
         offset="1"
         style="stop-color:#0d52bf;stop-opacity:1"
         id="stop3250-8-2-8-5-6-40-4" />
    </linearGradient>
    <linearGradient
       y2="48.395687"
       x2="25.132275"
       y1="15.499894"
       x1="25.132275"
       gradientTransform="matrix(1.2903867,0,0,1.2373259,1.0307217,-0.56698844)"
       gradientUnits="userSpaceOnUse"
       id="linearGradient4556-9"
       xlink:href="#linearGradient4658" />
    <linearGradient
       gradientUnits="userSpaceOnUse"
       y2="48.933952"
       x2="24.169817"
       y1="-12.24244"
       x1="24.169817"
       id="linearGradient4654"
       xlink:href="#linearGradient3242-7-3-8-0-4-58-06"
       gradientTransform="translate(0,0.49999976)" />
    <linearGradient
       y2="19.963179"
       x2="23.954144"
       y1="15.999304"
       x1="23.954144"
       gradientTransform="matrix(1.4,0,0,0.5,-1.5999986,10.500001)"
       gradientUnits="userSpaceOnUse"
       id="linearGradient4656"
       xlink:href="#linearGradient23419" />
    <linearGradient
       x1="302.85715"
       y1="366.64789"
       x2="302.85715"
       y2="609.50507"
       id="linearGradient3128"
       xlink:href="#linearGradient5048"
       gradientUnits="userSpaceOnUse"
       gradientTransform="matrix(0.09153846,0,0,0.02058823,-1.084616,49.45142)" />
    <linearGradient
       id="linearGradient5048">
      <stop
         id="stop5050"
         style="stop-color:#000000;stop-opacity:0"
         offset="0" />
      <stop
         id="stop5056"
         style="stop-color:#000000;stop-opacity:1"
         offset="0.5" />
      <stop
         id="stop5052"
         style="stop-color:#000000;stop-opacity:0"
         offset="1" />
    </linearGradient>
    <radialGradient
       cx="605.71429"
       cy="486.64789"
       r="117.14286"
       fx="605.71429"
       fy="486.64789"
       id="radialGradient3060"
       xlink:href="#linearGradient23419"
       gradientUnits="userSpaceOnUse"
       gradientTransform="matrix(-0.03132632,0,0,0.02058823,28.779136,49.45142)" />
    <radialGradient
       cx="605.71429"
       cy="486.64789"
       r="117.14286"
       fx="605.71429"
       fy="486.64789"
       id="radialGradient3057"
       xlink:href="#linearGradient23419"
       gradientUnits="userSpaceOnUse"
       gradientTransform="matrix(0.03132633,0,0,0.02058823,35.220859,49.45142)" />
    <linearGradient
       id="linearGradient3600-9">
      <stop
         id="stop3602-3"
         style="stop-color:#f4f4f4;stop-opacity:1"
         offset="0" />
      <stop
         id="stop3604-7"
         style="stop-color:#dbdbdb;stop-opacity:1"
         offset="1" />
    </linearGradient>
    <linearGradient
       x1="25.132275"
       y1="0.98520643"
       x2="25.132275"
       y2="47.013336"
       id="linearGradient3054"
       xlink:href="#linearGradient3600-9"
       gradientUnits="userSpaceOnUse"
       gradientTransform="matrix(1.3142827,0,0,1.2602393,0.4572141,-2.1793201)" />
    <linearGradient
       id="linearGradient3977-4">
      <stop
         id="stop3979-7"
         style="stop-color:#ffffff;stop-opacity:1"
         offset="0" />
      <stop
         id="stop3981-6"
         style="stop-color:#ffffff;stop-opacity:0.23529412"
         offset="0.01214366" />
      <stop
         id="stop3983-5"
         style="stop-color:#ffffff;stop-opacity:0.15686275"
         offset="0.98781353" />
      <stop
         id="stop3985-6"
         style="stop-color:#ffffff;stop-opacity:0.39215687"
         offset="1" />
    </linearGradient>
    <linearGradient
       x1="23.99999"
       y1="5.8641062"
       x2="23.99999"
       y2="42.100208"
       id="linearGradient3051"
       xlink:href="#linearGradient3977-4"
       gradientUnits="userSpaceOnUse"
       gradientTransform="matrix(1.2162162,0,0,1.5405376,2.8108184,-6.9729501)" />
    <linearGradient
       id="linearGradient3104-6">
      <stop
         id="stop3106-3"
         style="stop-color:#000000;stop-opacity:0.31782946"
         offset="0" />
      <stop
         id="stop3108-9"
         style="stop-color:#000000;stop-opacity:0.24031007"
         offset="1" />
    </linearGradient>
    <linearGradient
       x1="-51.786404"
       y1="50.786446"
       x2="-51.786404"
       y2="2.9062471"
       id="linearGradient3048"
       xlink:href="#linearGradient3104-6"
       gradientUnits="userSpaceOnUse"
       gradientTransform="matrix(1.0843523,0,0,1.1997367,79.550862,-4.1628601)" />
    <linearGradient
       y2="40.495617"
       x2="71.204407"
       y1="15.369057"
       x1="71.204407"
       gradientTransform="matrix(1.1838482,0,0,1.1838482,-61.44558,-8.99018)"
       gradientUnits="userSpaceOnUse"
       id="linearGradient8460"
       xlink:href="#linearGradient4806-2-9" />
    <linearGradient
       y2="40.495617"
       x2="71.204407"
       y1="15.369057"
       x1="71.204407"
       gradientTransform="matrix(1.3471377,0,0,-1.3471377,-73.23118,61.54055)"
       gradientUnits="userSpaceOnUse"
       id="linearGradient8456"
       xlink:href="#linearGradient4806-2-9" />
    <linearGradient
       y2="210"
       x2="368"
       y1="98"
       x1="304"
       gradientTransform="matrix(0.38749999,0,0,0.38749999,-154.19999,-83.67496)"
       gradientUnits="userSpaceOnUse"
       id="linearGradient8452"
       xlink:href="#linearGradient4251" />
    <linearGradient
       y2="40.495617"
       x2="71.204407"
       y1="15.369057"
       x1="71.204407"
       gradientTransform="matrix(1.5920718,0,0,1.5920718,-90.90958,-20.3661)"
       gradientUnits="userSpaceOnUse"
       id="linearGradient8448"
       xlink:href="#linearGradient4806-2-9" />
    <linearGradient
       y2="208"
       x2="252"
       y1="152"
       x1="196"
       gradientTransform="matrix(0.69491525,0,0,0.69491525,-131.31359,-101.08475)"
       gradientUnits="userSpaceOnUse"
       id="linearGradient8444"
       xlink:href="#linearGradient4140" />
    <radialGradient
       cx="99.157013"
       cy="186.17059"
       r="62.769119"
       fx="99.157013"
       fy="186.17059"
       id="radialGradient3018"
       xlink:href="#linearGradient23419"
       gradientUnits="userSpaceOnUse"
       gradientTransform="matrix(0.25490241,0,0,0.08762273,-1.27539,25.1859)" />
    <radialGradient
       cx="4.9929786"
       cy="43.5"
       r="2.5"
       fx="4.9929786"
       fy="43.5"
       id="radialGradient3013"
       xlink:href="#linearGradient3688-166-749-4-0-3-8-1"
       gradientUnits="userSpaceOnUse"
       gradientTransform="matrix(2.003784,0,0,1.4,27.98813,-17.4)" />
    <radialGradient
       cx="4.9929786"
       cy="43.5"
       r="2.5"
       fx="4.9929786"
       fy="43.5"
       id="radialGradient3015"
       xlink:href="#linearGradient3688-166-749-4-0-3-8-1"
       gradientUnits="userSpaceOnUse"
       gradientTransform="matrix(2.003784,0,0,1.4,-20.01187,-104.4)" />
    <linearGradient
       x1="23.99999"
       y1="4.999989"
       x2="23.99999"
       y2="43"
       id="linearGradient3991"
       xlink:href="#linearGradient3924-2-2-5-8-0"
       gradientUnits="userSpaceOnUse"
       gradientTransform="translate(4e-6,0.75000619)" />
    <linearGradient
       x1="24.169817"
       y1="-12.24244"
       x2="24.169817"
       y2="48.933952"
       id="linearGradient4036"
       xlink:href="#linearGradient3242-7-3-8-0-4-58-06"
       gradientUnits="userSpaceOnUse"
       gradientTransform="matrix(0.70909089,0,0,0.70909089,1.309104,2.0590923)" />
    <linearGradient
       x1="23.954144"
       y1="15.999304"
       x2="23.954144"
       y2="19.963179"
       id="linearGradient4043"
       xlink:href="#linearGradient23419"
       gradientUnits="userSpaceOnUse"
       gradientTransform="matrix(0.99999997,0,0,0.37500001,1.801756e-6,8.7500009)" />
    <linearGradient
       x1="25.132275"
       y1="15.499894"
       x2="25.132275"
       y2="48.395687"
       id="linearGradient4046-7"
       xlink:href="#linearGradient4658"
       gradientUnits="userSpaceOnUse"
       gradientTransform="matrix(0.89153988,0,0,0.8548797,2.6030444,1.4165388)" />
    <linearGradient
       x1="23.99999"
       y1="4.999989"
       x2="23.99999"
       y2="43"
       id="linearGradient4100"
       xlink:href="#linearGradient3924-2-2-5-8-0"
       gradientUnits="userSpaceOnUse"
       gradientTransform="translate(4e-6,0.75000599)" />
    <radialGradient
       gradientTransform="matrix(0.18029682,0,0,0.05942685,-1.8776934,16.207162)"
       gradientUnits="userSpaceOnUse"
       xlink:href="#linearGradient23419"
       id="radialGradient3018-7"
       fy="186.17059"
       fx="99.157013"
       r="62.769119"
       cy="186.17059"
       cx="99.157013" />
    <linearGradient
       xlink:href="#linearGradient4140"
       id="linearGradient8444-5"
       gradientUnits="userSpaceOnUse"
       gradientTransform="matrix(0.49152541,0,0,0.47542369,-93.85593,-70.051269)"
       x1="196"
       y1="152"
       x2="252"
       y2="208" />
    <linearGradient
       xlink:href="#linearGradient4251"
       id="linearGradient8452-6"
       gradientUnits="userSpaceOnUse"
       gradientTransform="matrix(0.27808187,0,0,0.28749999,-108.96049,-60.274968)"
       x1="304"
       y1="98"
       x2="368"
       y2="210" />
    <linearGradient
       gradientTransform="matrix(0.67567568,0,0,0.64864865,-0.21621703,0.93244198)"
       gradientUnits="userSpaceOnUse"
       xlink:href="#linearGradient3924-2-2-5-8-0"
       id="linearGradient3223"
       y2="43"
       x2="23.99999"
       y1="4.999989"
       x1="23.99999" />
    <radialGradient
       gradientTransform="matrix(2.003784,0,0,1.4,27.98813,-17.4)"
       gradientUnits="userSpaceOnUse"
       xlink:href="#linearGradient3688-166-749-4-0-3-8-1"
       id="radialGradient4002"
       fy="43.5"
       fx="4.9929786"
       r="2.5"
       cy="43.5"
       cx="4.9929786" />
    <radialGradient
       gradientTransform="matrix(2.003784,0,0,1.4,-20.01187,-104.4)"
       gradientUnits="userSpaceOnUse"
       xlink:href="#linearGradient3688-166-749-4-0-3-8-1"
       id="radialGradient4004"
       fy="43.5"
       fx="4.9929786"
       r="2.5"
       cy="43.5"
       cx="4.9929786" />
    <linearGradient
       gradientTransform="matrix(0.69999998,0,0,0.26923077,-0.80000019,5.6153856)"
       gradientUnits="userSpaceOnUse"
       xlink:href="#linearGradient23419"
       id="linearGradient4056"
       y2="19.963179"
       x2="23.954144"
       y1="15.999304"
       x1="23.954144" />
    <linearGradient
       gradientTransform="matrix(0.56307783,0,0,0.53992403,2.4861325,2.5707699)"
       gradientUnits="userSpaceOnUse"
       xlink:href="#linearGradient4658"
       id="linearGradient4059-1"
       y2="48.395687"
       x2="25.132275"
       y1="15.499894"
       x1="25.132275" />
    <linearGradient
       gradientTransform="matrix(0.45454545,0,0,0.45454545,0.454544,1.454547)"
       gradientUnits="userSpaceOnUse"
       xlink:href="#linearGradient3242-7-3-8-0-4-58-06"
       id="linearGradient4052-7"
       y2="48.933952"
       x2="24.169817"
       y1="-12.24244"
       x1="24.169817" />
    <linearGradient
       gradientTransform="matrix(0.62162164,0,0,0.62162164,0.0810794,1.0810903)"
       gradientUnits="userSpaceOnUse"
       xlink:href="#linearGradient3924-2-2-5-8-0"
       id="linearGradient4307"
       y2="43"
       x2="23.99999"
       y1="4.999989"
       x1="23.99999" />
    <filter
       height="1.67093"
       y="-0.33546502"
       width="1.0658927"
       x="-0.032946328"
       id="filter1069"
       style="color-interpolation-filters:sRGB"
       inkscape:collect="always">
      <feGaussianBlur
         id="feGaussianBlur1071"
         stdDeviation="0.4217537"
         inkscape:collect="always" />
    </filter>
    <linearGradient
       inkscape:collect="always"
       xlink:href="#linearGradient3600-9"
       id="linearGradient945"
       x1="35"
       y1="4"
       x2="35"
       y2="59"
       gradientUnits="userSpaceOnUse" />
  </defs>
  <metadata
     id="metadata7">
    <rdf:RDF>
      <cc:Work
         rdf:about="">
        <dc:format>image/svg+xml</dc:format>
        <dc:type
           rdf:resource="http://purl.org/dc/dcmitype/StillImage" />
        <dc:title />
      </cc:Work>
    </rdf:RDF>
  </metadata>
  <ellipse
     style="opacity:0.14800002;fill:#000000;fill-opacity:1;stroke:none;stroke-width:0.86794764;stroke-linecap:round;stroke-linejoin:round;stroke-opacity:0.36315792;filter:url(#filter1069)"
     id="path1059"
     cx="24.373692"
     cy="44.479126"
     rx="15.361483"
     ry="1.5086653"
     transform="matrix(1.3132143,0,0,0.97609525,0.9130158,15.123523)" />
  <ellipse
     style="fill:url(#linearGradient945);fill-opacity:1;stroke:#000000;stroke-width:1;stroke-miterlimit:4;stroke-dasharray:none;stroke-opacity:0.36315792"
     id="path886"
     cx="32.430161"
     cy="32.178741"
     rx="26.920893"
     ry="25.949924" />
  <rect
     style="fill:#abacae;fill-opacity:1;stroke:none;stroke-width:1;stroke-miterlimit:4;stroke-dasharray:none;stroke-opacity:0.18947371"
     id="rect929"
     width="22"
     height="2"
     x="25"
     y="27" />
  <rect
     style="fill:#abacae;fill-opacity:1;stroke:none;stroke-width:0.99999994;stroke-miterlimit:4;stroke-dasharray:none;stroke-opacity:0.18947371"
     id="rect931"
     width="22"
     height="2"
     x="25"
     y="47" />
  <path
     inkscape:connector-curvature="0"
     style="color:#000000;font-style:normal;font-variant:normal;font-weight:normal;font-stretch:normal;font-size:medium;line-height:normal;font-family:sans-serif;font-variant-ligatures:normal;font-variant-position:normal;font-variant-caps:normal;font-variant-numeric:normal;font-variant-alternates:normal;font-feature-settings:normal;text-indent:0;text-align:start;text-decoration:none;text-decoration-line:none;text-decoration-style:solid;text-decoration-color:#000000;letter-spacing:normal;word-spacing:normal;text-transform:none;writing-mode:lr-tb;direction:ltr;text-orientation:mixed;dominant-baseline:auto;baseline-shift:baseline;text-anchor:start;white-space:normal;shape-padding:0;clip-rule:nonzero;display:inline;overflow:visible;visibility:visible;opacity:0.271;isolation:auto;mix-blend-mode:normal;color-interpolation:sRGB;color-interpolation-filters:linearRGB;solid-color:#000000;solid-opacity:1;vector-effect:none;fill:#273445;fill-opacity:1;fill-rule:nonzero;stroke:none;stroke-width:2;stroke-linecap:round;stroke-linejoin:round;stroke-miterlimit:4;stroke-dasharray:none;stroke-dashoffset:0;stroke-opacity:1;color-rendering:auto;image-rendering:auto;shape-rendering:auto;text-rendering:auto;enable-background:accumulate"
     d="m 15.359377,15.297891 a 1.0001,1.0001 0 0 0 -0.199219,0.02148 1.0001,1.0001 0 0 0 -0.189453,0.06055 1.0001,1.0001 0 0 0 -0.173828,0.09766 1.0001,1.0001 0 0 0 -0.416016,0.660157 1.0001,1.0001 0 0 0 -0.01172,0.09766 1.0001,1.0001 0 0 0 0.02734,0.298828 1.0001,1.0001 0 0 0 0.02734,0.0957 1.0001,1.0001 0 0 0 0.140625,0.263672 1.0001,1.0001 0 0 0 0.06445,0.07813 1.0001,1.0001 0 0 0 0.0078,0.0098 l 16.781251,17.46289 a 1.0001,1.0001 0 0 0 0.240234,0.179688 1.0001,1.0001 0 0 0 0.002,0 1.0001,1.0001 0 0 0 0.166016,0.166015 1.0001,1.0001 0 0 0 0.169922,0.105469 1.0001,1.0001 0 0 0 0.0918,0.04102 1.0001,1.0001 0 0 0 0.392578,0.0625 1.0001,1.0001 0 0 0 0.197265,-0.02734 1.0001,1.0001 0 0 0 0.0957,-0.0293 1.0001,1.0001 0 0 0 0.0918,-0.03711 1.0001,1.0001 0 0 0 0.259741,-0.175828 L 46.255862,22.071328 a 1.0001,1.0001 0 0 0 0.06836,-0.07422 1.0001,1.0001 0 0 0 0.210937,-0.447266 1.0001,1.0001 0 0 0 0.01367,-0.09961 1.0001,1.0001 0 0 0 0.0039,-0.09961 1.0001,1.0001 0 0 0 -0.0059,-0.09961 1.0001,1.0001 0 0 0 -0.01758,-0.09961 1.0001,1.0001 0 0 0 -0.06055,-0.189453 1.0001,1.0001 0 0 0 -0.158203,-0.253906 1.0001,1.0001 0 0 0 -0.144531,-0.136719 1.0001,1.0001 0 0 0 -0.08203,-0.05664 1.0001,1.0001 0 0 0 -0.373046,-0.140625 1.0001,1.0001 0 0 0 -0.199219,-0.01172 1.0001,1.0001 0 0 0 -0.09961,0.0078 1.0001,1.0001 0 0 0 -0.457031,0.189454 1.0001,1.0001 0 0 0 -0.07617,0.0625 1.0001,1.0001 0 0 0 -0.0098,0.0098 L 32.433597,32.618203 16.08008,15.594766 a 1.0001,1.0001 0 0 0 -0.07422,-0.06641 1.0001,1.0001 0 0 0 -0.166015,-0.111328 1.0001,1.0001 0 0 0 -0.08984,-0.04297 1.0001,1.0001 0 0 0 -0.390625,-0.07617 z"
     id="path935-3" />
  <path
     style="color:#000000;font-style:normal;font-variant:normal;font-weight:normal;font-stretch:normal;font-size:medium;line-height:normal;font-family:sans-serif;font-variant-ligatures:normal;font-variant-position:normal;font-variant-caps:normal;font-variant-numeric:normal;font-variant-alternates:normal;font-feature-settings:normal;text-indent:0;text-align:start;text-decoration:none;text-decoration-line:none;text-decoration-style:solid;text-decoration-color:#000000;letter-spacing:normal;word-spacing:normal;text-transform:none;writing-mode:lr-tb;direction:ltr;text-orientation:mixed;dominant-baseline:auto;baseline-shift:baseline;text-anchor:start;white-space:normal;shape-padding:0;clip-rule:nonzero;display:inline;overflow:visible;visibility:visible;opacity:1;isolation:auto;mix-blend-mode:normal;color-interpolation:sRGB;color-interpolation-filters:linearRGB;solid-color:#000000;solid-opacity:1;vector-effect:none;fill:#273445;fill-opacity:1;fill-rule:nonzero;stroke:none;stroke-width:2;stroke-linecap:round;stroke-linejoin:round;stroke-miterlimit:4;stroke-dasharray:none;stroke-dashoffset:0;stroke-opacity:1;color-rendering:auto;image-rendering:auto;shape-rendering:auto;text-rendering:auto;enable-background:accumulate"
     d="M 15.359375 13.466797 A 1.0001 1.0001 0 0 0 15.160156 13.488281 A 1.0001 1.0001 0 0 0 14.970703 13.548828 A 1.0001 1.0001 0 0 0 14.796875 13.646484 A 1.0001 1.0001 0 0 0 14.380859 14.306641 A 1.0001 1.0001 0 0 0 14.369141 14.404297 A 1.0001 1.0001 0 0 0 14.396484 14.703125 A 1.0001 1.0001 0 0 0 14.423828 14.798828 A 1.0001 1.0001 0 0 0 14.564453 15.0625 A 1.0001 1.0001 0 0 0 14.628906 15.140625 A 1.0001 1.0001 0 0 0 14.636719 15.150391 L 31.417969 32.613281 A 1.0001 1.0001 0 0 0 31.658203 32.792969 A 1.0001 1.0001 0 0 0 31.660156 32.792969 A 1.0001 1.0001 0 0 0 31.826172 32.958984 A 1.0001 1.0001 0 0 0 31.996094 33.064453 A 1.0001 1.0001 0 0 0 32.087891 33.105469 A 1.0001 1.0001 0 0 0 32.480469 33.167969 A 1.0001 1.0001 0 0 0 32.677734 33.140625 A 1.0001 1.0001 0 0 0 32.773438 33.111328 A 1.0001 1.0001 0 0 0 32.865234 33.074219 A 1.0001 1.0001 0 0 0 33.125 32.898438 L 46.255859 20.240234 A 1.0001 1.0001 0 0 0 46.324219 20.166016 A 1.0001 1.0001 0 0 0 46.535156 19.71875 A 1.0001 1.0001 0 0 0 46.548828 19.619141 A 1.0001 1.0001 0 0 0 46.552734 19.519531 A 1.0001 1.0001 0 0 0 46.546875 19.419922 A 1.0001 1.0001 0 0 0 46.529297 19.320312 A 1.0001 1.0001 0 0 0 46.46875 19.130859 A 1.0001 1.0001 0 0 0 46.310547 18.876953 A 1.0001 1.0001 0 0 0 46.166016 18.740234 A 1.0001 1.0001 0 0 0 46.083984 18.683594 A 1.0001 1.0001 0 0 0 45.710938 18.542969 A 1.0001 1.0001 0 0 0 45.511719 18.53125 A 1.0001 1.0001 0 0 0 45.412109 18.539062 A 1.0001 1.0001 0 0 0 44.955078 18.728516 A 1.0001 1.0001 0 0 0 44.878906 18.791016 A 1.0001 1.0001 0 0 0 44.869141 18.800781 L 32.433594 30.787109 L 16.080078 13.763672 A 1.0001 1.0001 0 0 0 16.005859 13.697266 A 1.0001 1.0001 0 0 0 15.839844 13.585938 A 1.0001 1.0001 0 0 0 15.75 13.542969 A 1.0001 1.0001 0 0 0 15.359375 13.466797 z "
     id="path935" />
  <circle
     style="fill:#a56de2;fill-opacity:1;stroke:none;stroke-width:1;stroke-linecap:round;stroke-linejoin:round;stroke-miterlimit:4;stroke-dasharray:none;stroke-opacity:0.18947371"
     id="path982"
     cx="17.5"
     cy="26.5"
     r="2.5" />
  <circle
     style="fill:#a56de2;fill-opacity:1;stroke:none;stroke-width:1;stroke-linecap:round;stroke-linejoin:round;stroke-miterlimit:4;stroke-dasharray:none;stroke-opacity:0.18947371"
     id="path984"
     cx="17.5"
     cy="46.5"
     r="2.5" />
  <rect
     style="fill:#abacae;fill-opacity:1;stroke:none;stroke-width:1;stroke-miterlimit:4;stroke-dasharray:none;stroke-opacity:0.18947371"
     id="rect931-3"
     width="22"
     height="2"
     x="25"
     y="37" />
  <circle
     style="fill:#a56de2;fill-opacity:1;stroke:none;stroke-width:1;stroke-linecap:round;stroke-linejoin:round;stroke-miterlimit:4;stroke-dasharray:none;stroke-opacity:0.18947371"
     id="path982-5"
     cx="17.5"
     cy="36.5"
     r="2.5" />
</svg>
